<svg width="30" height="32" viewBox="0 0 30 32" fill="none" xmlns="http://www.w3.org/2000/svg">
<path d="M19.546 9.06384V22.8228H9.66779V16.7371M22.1415 15.4897L14.7329 8.87485L14.6699 8.93785L14.6069 8.87485L7.19824 15.4897M16.4339 15.8803H12.7799V19.5342H16.4339V15.8803Z" stroke="#1F1F1F" stroke-miterlimit="22.9256" stroke-linecap="round" stroke-linejoin="round"/>
<path d="M14.6707 31C6.50609 27.5477 1 23.6921 1 16.1701C1 12.3146 1.0504 7.19907 1.0504 3.34355C3.50735 6.16589 12.8438 5.08232 14.6707 1C16.5103 5.08232 25.8467 6.16589 28.2911 3.34355C28.2911 7.19907 28.3415 12.3146 28.3415 16.1701C28.3415 23.6921 22.8354 27.5351 14.6707 31Z" stroke="#1F1F1F" stroke-miterlimit="22.9256" stroke-linecap="round" stroke-linejoin="round"/>
</svg>
