<svg width="32" height="32" viewBox="0 0 32 32" fill="none" xmlns="http://www.w3.org/2000/svg">
<path d="M24.6311 1.17448V5.251M14.8596 7.6805V14.7723H24.6311V7.6805M27.1986 7.6805L27.1363 7.61818L27.1986 7.54342L19.87 1L19.8076 1.06232L19.7453 1L12.4167 7.54342L12.479 7.61818L12.4167 7.6805M1 3.7794H6.27212L11.1579 21.2534H28.4325L31 10.4848M21.5526 7.91733H17.9381V11.5318H21.5526V7.91733ZM14.7973 25.3914C16.3427 25.3914 17.6016 26.6502 17.6016 28.1957C17.6016 29.7412 16.3427 31 14.7973 31C13.2518 31 11.9929 29.7412 11.9929 28.1957C11.9929 26.6502 13.2518 25.3914 14.7973 25.3914Z" stroke="#1F1F1F" stroke-miterlimit="22.9256" stroke-linecap="round" stroke-linejoin="round"/>
<path d="M23.9459 25.3914C25.4914 25.3914 26.7502 26.6502 26.7502 28.1957C26.7502 29.7412 25.4914 31 23.9459 31C22.4004 31 21.1416 29.7412 21.1416 28.1957C21.1416 26.6502 22.4004 25.3914 23.9459 25.3914Z" stroke="#1F1F1F" stroke-miterlimit="22.9256" stroke-linecap="round" stroke-linejoin="round"/>
<path d="M23.9442 27.6098C24.2682 27.6098 24.53 27.8715 24.53 28.1956C24.53 28.5196 24.2682 28.7814 23.9442 28.7814C23.6201 28.7814 23.3584 28.5196 23.3584 28.1956C23.3584 27.8715 23.6201 27.6098 23.9442 27.6098Z" stroke="#1F1F1F" stroke-miterlimit="22.9256" stroke-linecap="round" stroke-linejoin="round"/>
<path d="M14.7967 27.6098C15.1208 27.6098 15.3825 27.8715 15.3825 28.1956C15.3825 28.5196 15.1208 28.7814 14.7967 28.7814C14.4727 28.7814 14.2109 28.5196 14.2109 28.1956C14.2109 27.8715 14.4727 27.6098 14.7967 27.6098Z" stroke="#1F1F1F" stroke-miterlimit="22.9256" stroke-linecap="round" stroke-linejoin="round"/>
</svg>
