<svg width="32" height="32" viewBox="0 0 32 32" fill="none" xmlns="http://www.w3.org/2000/svg">
<path d="M28.1963 16.8156L28.7698 17.3126L31 14.8148L30.8726 14.7001L31 14.5599L28.26 12.113L28.2982 1.57346H24.1563L24.0799 8.3789L16.1402 1.29309L16.0127 1.40779L15.8853 1.29309L1 14.5471L1.12744 14.6873L1 14.802L3.23025 17.2999L3.7655 16.8284L3.68904 28.9227C3.68904 29.904 4.51741 30.7069 5.47323 30.7069H26.514C27.4698 30.7069 28.2982 29.8785 28.2982 28.9227L28.1963 16.8156Z" stroke="#1F1F1F" stroke-miterlimit="22.9256" stroke-linecap="round" stroke-linejoin="round"/>
<path d="M18.5616 15.5157C17.7459 15.248 17.0195 14.9932 16.2804 14.9039C12.3169 14.4579 11.8071 18.4596 16.0255 18.4468C20.1291 18.4341 19.7468 22.4358 15.7706 21.9898C15.0314 21.9005 14.305 21.6456 13.4894 21.378M16 12.8394V14.6108V12.8394ZM16 22.3084V24.0798V22.3084ZM16 10.316C20.4987 10.316 24.1308 13.9609 24.1308 18.4468C24.1308 22.9456 20.486 26.5777 16 26.5777C11.5012 26.5777 7.86914 22.9328 7.86914 18.4468C7.86914 13.9609 11.5012 10.316 16 10.316Z" stroke="#1F1F1F" stroke-miterlimit="22.9256" stroke-linecap="round" stroke-linejoin="round"/>
</svg>
