<svg width="32" height="32" viewBox="0 0 32 32" fill="none" xmlns="http://www.w3.org/2000/svg">
<path d="M12.8155 29.4364C12.8401 31.4557 9.30629 31.6035 9.30629 29.4364M9.31861 24.5482V29.4364C9.31861 31.5542 5.89562 31.5296 5.92025 29.461L6.05569 24.0803L4.3442 23.7356L6.67134 14.0946L3.45767 18.4656C3.05134 19.0197 2.47264 19.4507 1.82005 19.2044C1.16747 18.9582 0.835022 18.2194 1.08128 17.5668L4.95984 11.2133C5.72324 9.19402 13.0125 9.24327 13.7759 11.238L14.6132 12.7524M15.9183 26.863V29.7812C15.9183 31.4311 12.7539 31.4188 12.7785 29.7935L12.914 26.8507L11.3256 26.5798L13.4681 21.1129M12.3476 23.7971C12.0644 24.2773 11.8304 24.3512 11.2271 24.1665C10.6238 23.9695 10.316 23.4031 10.5499 22.886L11.9043 19.3522C12.6062 17.7761 19.3413 17.813 20.0431 19.3645L21.5699 23.1322C21.8039 23.637 21.4961 24.2158 20.8927 24.4128C20.2894 24.6098 20.0308 24.3019 19.6861 23.8464M18.4548 21.1375L20.7696 26.5798L19.0335 26.8507L19.1443 29.7689C19.1689 31.3449 15.906 31.4557 15.906 29.7689M19.1443 29.3995C19.1197 31.6404 23.1583 31.4434 23.1583 29.3749M23.1583 20.6327L23.146 29.4118C23.146 31.4804 26.9876 31.4434 26.963 29.3749L26.8891 23.2061L26.7906 13.1218L28.3297 17.7145C29.3763 20.4726 31.4079 18.675 30.9277 17.419L29.1547 10.019C28.6252 7.79035 17.2727 7.90116 16.891 9.99436L16.4601 12.3708M9.26936 2.2003C10.87 2.2003 12.1629 3.49315 12.1629 5.09383C12.1629 6.17736 11.5719 7.11314 10.6976 7.60566C10.2667 7.86423 9.76187 7.99967 9.23242 7.99967C7.63174 7.99967 6.33889 6.70682 6.33889 5.10614C6.33889 4.02261 6.9299 3.08683 7.80412 2.59431C8.22276 2.33574 8.72759 2.2003 9.26936 2.2003ZM16.0538 12.8633C17.5067 12.8633 18.6887 14.0453 18.6887 15.4982C18.6887 16.9511 17.5067 18.1332 16.0538 18.1332C14.6008 18.1332 13.4188 16.9511 13.4188 15.4982C13.4188 14.0453 14.6008 12.8633 16.0538 12.8633ZM22.9367 0.981323C24.5373 0.981323 25.8302 2.27418 25.8302 3.87485C25.8302 4.95839 25.2392 5.89416 24.365 6.38668C23.934 6.64525 23.4292 6.78069 22.8997 6.78069C21.2991 6.78069 20.0062 5.48784 20.0062 3.88716C20.0062 2.80363 20.5972 1.86785 21.4714 1.37533C21.9024 1.11676 22.4072 0.981323 22.9367 0.981323Z" stroke="#1F1F1F" stroke-miterlimit="22.9256" stroke-linecap="round" stroke-linejoin="round"/>
</svg>
