<svg width="32" height="32" viewBox="0 0 32 32" fill="none" xmlns="http://www.w3.org/2000/svg">
<path d="M26.6789 6.98019H29.019C30.0714 6.98019 30.9381 7.68593 30.9381 8.54024V23.7817C30.9381 24.636 30.0714 25.3417 29.019 25.3417H15.5233M9.41932 25.3541H6.99256C5.94015 25.3541 5.07345 24.6484 5.07345 23.7941V8.55262C5.07345 7.68592 5.94015 6.99257 6.99256 6.99257H21.454M31 1.08667H1V30.9134M14.2604 1.43334V6.36112M21.7388 1.43334V6.36112M17.7396 13.1213L20.7606 18.3463L23.0264 17.0338M11.1279 17.0958L10.2117 17.5043C7.52496 18.693 9.15929 20.9835 11.3136 20.3149C13.468 19.6463 15.1024 21.9369 12.4156 23.1255L11.4994 23.5341M5.98966 15.8824L23.6455 5.69253C24.4627 5.22204 25.5027 5.50681 25.9732 6.3116L30.641 14.3966C31.1114 15.2138 30.8267 16.2538 30.0219 16.7243L12.3661 26.9142C11.5489 27.3847 10.5089 27.0999 10.0384 26.2951L5.37059 18.2101C4.9001 17.3929 5.18487 16.3529 5.98966 15.8824ZM14.0004 15.2881L14.5699 14.9538C15.1023 14.6443 15.7833 14.83 16.0805 15.3624L17.9872 18.6682C18.2967 19.2006 18.111 19.8816 17.5786 20.1787L17.0091 20.513C16.4767 20.8226 15.7957 20.6368 15.4985 20.1044L13.5918 16.7986C13.2947 16.2662 13.4804 15.5852 14.0004 15.2881ZM21.9245 10.707L24.9455 15.9319L26.6542 14.9414C27.1494 14.6566 27.3227 14.0004 27.038 13.5052L25.0693 10.1003C24.7846 9.60503 24.1283 9.4317 23.6331 9.71647L21.9245 10.707Z" stroke="#1F1F1F" stroke-miterlimit="22.9256" stroke-linecap="round" stroke-linejoin="round"/>
</svg>
