<svg width="32" height="32" viewBox="0 0 32 32" fill="none" xmlns="http://www.w3.org/2000/svg">
<path d="M17.8742 5.96886V19.5679H8.09838V13.5529M20.4396 12.4695L20.3773 12.4072L20.4396 12.3325L13.1171 5.79452L13.0548 5.85679L12.9925 5.79452L5.66999 12.3325L5.73226 12.4072L5.66999 12.4695M31 28.0984L28.0984 31L20.6513 23.5529L23.6027 20.7011L31 28.0984ZM13.3288 1C20.1407 1 25.6575 6.51681 25.6575 13.3288C25.6575 20.1407 20.1407 25.6575 13.3288 25.6575C6.51681 25.6575 1 20.1407 1 13.3288C1 6.52927 6.51681 1 13.3288 1ZM14.7983 12.7061H11.1868V16.3176H14.7983V12.7061Z" stroke="#1F1F1F" stroke-miterlimit="22.9256" stroke-linecap="round" stroke-linejoin="round"/>
</svg>
