<svg width="32" height="32" viewBox="0 0 32 32" fill="none" xmlns="http://www.w3.org/2000/svg">
<path d="M13.7966 26.8672H18.3775M1.83401 1.13702H20.282C20.7426 1.13702 21.1161 1.53536 21.1161 2.02083V29.9792C21.1161 30.4522 20.7302 30.863 20.282 30.863H1.83401C1.38588 30.863 1 30.4647 1 29.9792V2.02083C1.01245 1.52291 1.38588 1.13702 1.83401 1.13702ZM6.029 12.415V17.2697V12.415ZM3.73857 14.8423H8.31945H3.73857ZM17.5186 13.137L14.2821 16.5726L17.5186 13.137ZM4.41076 23.8423L7.64725 27.278L4.41076 23.8423ZM4.41076 27.278L7.64725 23.8423L4.41076 27.278ZM1.11202 20.0581H21.0289H1.11202ZM11.0705 9.50213V30.614V9.50213ZM13.7966 24.2531H18.3775H13.7966Z" stroke="#1F1F1F" stroke-miterlimit="22.9256" stroke-linecap="round" stroke-linejoin="round"/>
<path fill-rule="evenodd" clip-rule="evenodd" d="M13.9132 12.5589C13.6956 12.7758 13.6956 13.1372 13.9132 13.354C14.1309 13.5709 14.4894 13.5709 14.7071 13.354C14.9247 13.1372 14.9247 12.7758 14.7071 12.5589C14.4894 12.3421 14.1309 12.3421 13.9132 12.5589Z" stroke="#1F1F1F" stroke-miterlimit="22.9256" stroke-linecap="round" stroke-linejoin="round"/>
<path fill-rule="evenodd" clip-rule="evenodd" d="M17.3371 16.1814C17.1194 16.3982 17.1194 16.7596 17.3371 16.9764C17.5547 17.1933 17.9132 17.1933 18.1309 16.9764C18.3486 16.7596 18.3486 16.3982 18.1309 16.1814C17.9132 15.9645 17.5547 15.9645 17.3371 16.1814Z" stroke="#1F1F1F" stroke-miterlimit="22.9256" stroke-linecap="round" stroke-linejoin="round"/>
<path d="M1.1123 9.25313H21.0292M30.9876 14.195L31.0001 6.80086H24.6765M26.5312 28.5601V26.4315M24.7014 3.68884H28.5105V23.4688C28.5105 27.4148 24.7014 27.4148 24.7014 23.4688V3.68884Z" stroke="#1F1F1F" stroke-miterlimit="22.9256" stroke-linecap="round" stroke-linejoin="round"/>
</svg>
