<svg width="32" height="32" viewBox="0 0 32 32" fill="none" xmlns="http://www.w3.org/2000/svg">
<path d="M28.1963 16.8156L31 14.5599L28.26 12.113L28.2982 1.57346H24.1563L24.0799 8.3789L16.1402 1.29309L16.0127 1.40779L15.8853 1.29309L1 14.5471L3.7655 16.8284L3.68904 28.9227C3.68904 29.904 4.51741 30.7069 5.47323 30.7069H26.514C27.4698 30.7069 28.2982 29.8785 28.2982 28.9227L28.1963 16.8156Z" stroke="#1F1F1F" stroke-miterlimit="22.9256" stroke-linecap="round" stroke-linejoin="round"/>
<path d="M15.9256 26.8364C11.4406 24.94 8.41602 22.822 8.41602 18.69C8.41602 16.5721 8.4437 13.7621 8.4437 11.6442C9.79335 13.1946 14.922 12.5993 15.9256 10.3568C16.9361 12.5993 22.0648 13.1946 23.4075 11.6442C23.4075 13.7621 23.4352 16.5721 23.4352 18.69C23.4352 22.822 20.4106 24.933 15.9256 26.8364Z" stroke="#1F1F1F" stroke-miterlimit="22.9256" stroke-linecap="round" stroke-linejoin="round"/>
</svg>
