<svg width="32" height="32" viewBox="0 0 32 32" fill="none" xmlns="http://www.w3.org/2000/svg">
<path d="M10.8725 14.2597V20.609H21.625V14.2597M8.69133 12.9082L15.9362 6.44411L16 6.50786L16.0638 6.44411L23.3087 12.9082M16 1C24.2908 1 31 6.9541 31 14.2979C31 21.6417 24.2781 27.5958 16 27.5958C14.3419 27.5958 12.7602 27.3536 11.2679 26.9201C9.58419 28.5011 7.40307 29.9035 4.67348 31L5.57909 23.8602C2.76021 21.4377 1 18.0463 1 14.2979C1 6.9541 7.72195 1 16 1ZM14.6862 12.1815C15.273 12.1815 15.9362 12.717 16.2168 13.2652C16.4847 12.717 17.148 12.1815 17.7347 12.1815C19.2653 12.1815 20.0689 14.2724 18.6786 15.6494L16.2679 18.0208L13.8061 15.6494C12.3648 14.3489 13.1556 12.1815 14.6862 12.1815Z" stroke="#1F1F1F" stroke-miterlimit="22.9256" stroke-linecap="round" stroke-linejoin="round"/>
</svg>
