<svg width="64" height="36" viewBox="0 0 64 36" fill="none" xmlns="http://www.w3.org/2000/svg">
<rect width="64" height="36" rx="18" fill="#D9B351"/>
<path d="M23.1797 20.8281C23.1797 21.8594 22.8073 22.6719 22.0625 23.2656C21.3229 23.8594 20.2917 24.1562 18.9688 24.1562C17.75 24.1562 16.6719 23.9271 15.7344 23.4688V21.2188C16.5052 21.5625 17.1562 21.8047 17.6875 21.9453C18.224 22.0859 18.7135 22.1562 19.1562 22.1562C19.6875 22.1562 20.0938 22.0547 20.375 21.8516C20.6615 21.6484 20.8047 21.3464 20.8047 20.9453C20.8047 20.7214 20.7422 20.5234 20.6172 20.3516C20.4922 20.1745 20.3073 20.0052 20.0625 19.8438C19.8229 19.6823 19.3307 19.4245 18.5859 19.0703C17.888 18.7422 17.3646 18.4271 17.0156 18.125C16.6667 17.8229 16.388 17.4714 16.1797 17.0703C15.9714 16.6693 15.8672 16.2005 15.8672 15.6641C15.8672 14.6536 16.2083 13.8594 16.8906 13.2812C17.5781 12.7031 18.526 12.4141 19.7344 12.4141C20.3281 12.4141 20.8932 12.4844 21.4297 12.625C21.9714 12.7656 22.5365 12.9635 23.125 13.2188L22.3438 15.1016C21.7344 14.8516 21.2292 14.6771 20.8281 14.5781C20.4323 14.4792 20.0417 14.4297 19.6562 14.4297C19.1979 14.4297 18.8464 14.5365 18.6016 14.75C18.3568 14.9635 18.2344 15.2422 18.2344 15.5859C18.2344 15.7995 18.2839 15.987 18.3828 16.1484C18.4818 16.3047 18.638 16.4583 18.8516 16.6094C19.0703 16.7552 19.5833 17.0208 20.3906 17.4062C21.4583 17.9167 22.1901 18.4297 22.5859 18.9453C22.9818 19.4557 23.1797 20.0833 23.1797 20.8281ZM26.9609 19.6172C26.9609 20.4818 27.1016 21.1354 27.3828 21.5781C27.6693 22.0208 28.1328 22.2422 28.7734 22.2422C29.4089 22.2422 29.8646 22.0234 30.1406 21.5859C30.4219 21.1432 30.5625 20.487 30.5625 19.6172C30.5625 18.7526 30.4219 18.1042 30.1406 17.6719C29.8594 17.2396 29.3984 17.0234 28.7578 17.0234C28.1224 17.0234 27.6641 17.2396 27.3828 17.6719C27.1016 18.099 26.9609 18.7474 26.9609 19.6172ZM33 19.6172C33 21.0391 32.625 22.151 31.875 22.9531C31.125 23.7552 30.0807 24.1562 28.7422 24.1562C27.9036 24.1562 27.1641 23.974 26.5234 23.6094C25.8828 23.2396 25.3906 22.7109 25.0469 22.0234C24.7031 21.3359 24.5312 20.5339 24.5312 19.6172C24.5312 18.1901 24.9036 17.0807 25.6484 16.2891C26.3932 15.4974 27.4401 15.1016 28.7891 15.1016C29.6276 15.1016 30.3672 15.2839 31.0078 15.6484C31.6484 16.013 32.1406 16.5365 32.4844 17.2188C32.8281 17.901 33 18.7005 33 19.6172ZM37.3516 24H34.9688V11.8438H37.3516V24ZM42.625 24.1562C41.599 24.1562 40.7917 23.7578 40.2031 22.9609C39.6198 22.1641 39.3281 21.0599 39.3281 19.6484C39.3281 18.2161 39.625 17.1016 40.2188 16.3047C40.8177 15.5026 41.6406 15.1016 42.6875 15.1016C43.7865 15.1016 44.625 15.5286 45.2031 16.3828H45.2812C45.1615 15.7318 45.1016 15.151 45.1016 14.6406V11.8438H47.4922V24H45.6641L45.2031 22.8672H45.1016C44.5599 23.7266 43.7344 24.1562 42.625 24.1562ZM43.4609 22.2578C44.0703 22.2578 44.5156 22.0807 44.7969 21.7266C45.0833 21.3724 45.2396 20.7708 45.2656 19.9219V19.6641C45.2656 18.7266 45.1198 18.0547 44.8281 17.6484C44.5417 17.2422 44.0729 17.0391 43.4219 17.0391C42.8906 17.0391 42.4766 17.2656 42.1797 17.7188C41.888 18.1667 41.7422 18.8203 41.7422 19.6797C41.7422 20.5391 41.8906 21.1849 42.1875 21.6172C42.4844 22.0443 42.9089 22.2578 43.4609 22.2578Z" fill="white"/>
</svg>
