<svg width="27" height="27" viewBox="0 0 27 27" fill="none" xmlns="http://www.w3.org/2000/svg">
<path d="M2.66406 16.1909C2.66406 20.5664 4.52313 24.2845 8.61102 24.2845H17.9474C22.025 24.2845 23.8944 20.5767 23.8944 16.1909" stroke="#D9B351" stroke-width="1.25713" stroke-miterlimit="22.9256" stroke-linecap="round" stroke-linejoin="round"/>
<path d="M25.4131 16.0471H1.14258" stroke="#D9B351" stroke-width="1.25725" stroke-miterlimit="22.9256" stroke-linecap="round" stroke-linejoin="round"/>
<path d="M21.9008 25.7532L21.0586 24.3049" stroke="#D9B351" stroke-width="1.25718" stroke-miterlimit="22.9256" stroke-linecap="round" stroke-linejoin="round"/>
<path d="M4.64551 25.7532L5.48773 24.3049" stroke="#D9B351" stroke-width="1.25718" stroke-miterlimit="22.9256" stroke-linecap="round" stroke-linejoin="round"/>
<path d="M8.94783 4.09159C8.94783 2.39686 7.56124 1 5.85624 1C4.16151 1 2.76465 2.38659 2.76465 4.09159V15.1125" stroke="#D9B351" stroke-width="1.25712" stroke-miterlimit="22.9256" stroke-linecap="round" stroke-linejoin="round"/>
<path d="M12.8105 5.92985C12.3175 4.57407 11.0644 3.72156 9.9962 4.11186L8.25012 4.74867C7.18193 5.13898 6.76081 6.59746 7.25382 7.95324" stroke="#D9B351" stroke-width="1.25719" stroke-miterlimit="22.9256" stroke-linecap="round" stroke-linejoin="round"/>
<path d="M6.46289 8.41551L13.6526 5.79639" stroke="#D9B351" stroke-width="1.25717" stroke-miterlimit="22.9256" stroke-linecap="round" stroke-linejoin="round"/>
</svg>
