<svg width="27" height="26" viewBox="0 0 27 26" fill="none" xmlns="http://www.w3.org/2000/svg">
<path d="M22.8953 2.4869C22.8953 1.58304 22.1866 0.833252 21.3135 0.833252H5.0955C4.22246 0.833252 3.51376 1.58304 3.51376 2.4869M22.9055 2.4869V9.93343M3.51376 9.92315V2.47662M25.5452 19.3109V24.7649H22.0633V22.0019H4.35599V24.7649H0.874095V19.3109H25.5452ZM20.7897 9.64583V8.1668C20.7897 7.16024 19.9988 6.33855 19.0436 6.33855H15.079C14.1238 6.33855 13.3329 7.16024 13.3329 8.1668V9.27608L20.7897 9.64583ZM13.0864 9.27608V8.1668C13.0864 7.16024 12.2955 6.33855 11.3403 6.33855H7.37569C6.42048 6.33855 5.62961 7.16024 5.62961 8.1668V9.64583L13.0864 9.27608ZM3.49322 10.6216C9.62505 9.57393 19.0744 9.68692 22.9672 10.6216L25.576 18.9309H0.833008L3.49322 10.6216Z" stroke="#D9B351" stroke-width="1.20172" stroke-miterlimit="22.9256" stroke-linecap="round" stroke-linejoin="round"/>
</svg>
