<svg width="200" height="65" viewBox="0 0 200 65" fill="none" xmlns="http://www.w3.org/2000/svg">
<path d="M51.7756 49.7685L92.1097 5.9817L100.829 16.7056H103.072L93.303 4.677H91.0596H76.7716L35.2441 49.7685H29.9776L71.521 4.677H64.7429L23.2155 49.7685H20.8129L39.9538 28.7343H36.9466L17.8058 49.7685H17.6944L16.3897 51.3437L6.875 61.7971H7.62281H9.88216H12.1415H18.9036H24.1701H40.7016H191.012V49.7685H51.7756Z" fill="#D9B351"/>
<path d="M135.052 20.1584L133.97 23.8656L131.647 31.1846C131.159 32.659 130.841 33.6455 130.692 34.1441C130.533 34.6373 130.39 35.1305 130.247 35.6238L129.515 38.4241L127.844 28.1934L126.635 20.1584H122.228H117.804L116.213 26.9682L113.938 35.7829L113.318 38.4559C112.904 36.0852 112.538 34.0645 112.204 32.4098L110.613 24.7248C110.406 23.7542 110.135 22.2427 109.801 20.1584H105.903H102.005L103.135 24.9317L106.317 39.2515C106.635 40.7471 106.874 41.9086 107.033 42.7359L107.685 46.2363H112.458H117.232L120.302 35.0987C120.477 34.4145 120.652 33.7463 120.812 33.0939L121.48 30.1345C121.607 31.3597 121.719 32.2507 121.782 32.8394C121.846 33.4281 121.925 33.985 122.021 34.5259L123.612 43.627L124.105 46.2045H129.085H134.081L135.243 42.3382L142.641 20.1584H135.052Z" fill="#D9B351"/>
<path d="M155.561 26.5864C157.009 25.89 158.6 25.5414 160.207 25.5681C161.064 25.5735 161.92 25.6373 162.768 25.759C163.691 25.8863 164.9 26.1249 166.38 26.475L166.253 24.2952C166.253 23.4678 166.157 22.7041 166.141 21.9881V20.397C163.821 19.9716 161.468 19.748 159.109 19.7288C157.099 19.7275 155.097 19.995 153.158 20.5243C151.239 21.0501 149.44 21.9415 147.86 23.1496C146.281 24.3406 145.014 25.8966 144.169 27.6842C143.286 29.6378 142.846 31.7621 142.88 33.9054C142.854 35.732 143.178 37.5466 143.834 39.2514C144.514 40.8857 145.611 42.3124 147.017 43.3883C148.467 44.5409 150.125 45.4051 151.901 45.934C153.776 46.4565 155.715 46.7135 157.661 46.6977C160.102 46.6784 162.538 46.4763 164.948 46.0931C164.948 45.3612 165.171 44.327 165.394 42.9905C165.616 41.654 165.791 40.6039 165.951 39.8083C164.631 40.1651 163.292 40.4466 161.941 40.6516C160.966 40.7917 159.983 40.8661 158.997 40.8744C157.562 40.917 156.135 40.6285 154.829 40.0311C153.732 39.4877 152.803 38.6575 152.14 37.6285C151.472 36.5147 151.13 35.2357 151.153 33.9372C151.139 32.4086 151.547 30.9058 152.331 29.5935C153.102 28.3066 154.222 27.2641 155.561 26.5864Z" fill="#D9B351"/>
<path d="M187.288 37.8195C187.185 37.4257 187.047 37.0422 186.874 36.6739C186.649 36.2258 186.383 35.7997 186.079 35.401C185.703 34.912 185.293 34.4495 184.854 34.0168C184.439 33.5869 183.998 33.1831 183.533 32.8075L182.165 31.7256C181.194 30.9619 180.462 30.3891 180.017 29.9913C179.616 29.6681 179.243 29.3114 178.903 28.9253C178.666 28.6784 178.472 28.3933 178.33 28.082C178.23 27.845 178.176 27.5913 178.171 27.3342C178.191 27.0366 178.293 26.7505 178.468 26.5085C178.642 26.2666 178.881 26.0785 179.157 25.9659C179.923 25.5705 180.778 25.3788 181.64 25.409C182.478 25.4264 183.314 25.5169 184.138 25.6795C185.225 25.9138 186.29 26.2439 187.32 26.6659C187.129 24.8362 187.017 23.4838 186.954 22.8314C186.89 22.1791 186.858 21.2403 186.826 20.4129C184.51 19.9604 182.155 19.7313 179.794 19.7288C178.728 19.7247 177.663 19.8098 176.612 19.9834C175.601 20.1523 174.624 20.4799 173.716 20.9539C172.889 21.3656 172.149 21.9328 171.536 22.6246C171.009 23.2484 170.595 23.959 170.311 24.7248C170.039 25.4526 169.899 26.2231 169.897 27.0001C169.899 27.6239 169.985 28.2446 170.152 28.8457C170.339 29.4521 170.618 30.0262 170.979 30.5482C171.45 31.2028 171.983 31.8103 172.57 32.362C172.904 32.6803 173.493 33.1894 174.336 33.9531L177.932 37.1353C178.22 37.3723 178.477 37.6449 178.696 37.9468C178.853 38.1482 178.977 38.3739 179.062 38.615C179.127 38.8154 179.159 39.0249 179.157 39.2355C179.15 39.5442 179.052 39.8439 178.877 40.0982C178.702 40.3525 178.457 40.5503 178.171 40.6675C177.335 41.0335 176.426 41.2023 175.514 41.1608C174.527 41.1424 173.545 41.0143 172.586 40.7789C171.272 40.4692 169.992 40.0267 168.768 39.4583C168.99 41.0494 169.181 43.261 169.34 45.9659C171.912 46.5026 174.527 46.8008 177.153 46.8569C178.431 46.8651 179.706 46.7317 180.955 46.4591C182.136 46.2021 183.258 45.7273 184.265 45.0589C185.232 44.4231 186.027 43.5595 186.582 42.5441C187.137 41.5287 187.434 40.3926 187.447 39.2355C187.447 38.7591 187.394 38.2841 187.288 37.8195Z" fill="#D9B351"/>
<path d="M89.9136 32.4893H84.5039V37.899H89.9136V32.4893Z" fill="#D9B351"/>
<path d="M98.5679 32.4893H93.1582V37.899H98.5679V32.4893Z" fill="#D9B351"/>
<path d="M98.5679 40.6039H93.1582V46.0136H98.5679V40.6039Z" fill="#D9B351"/>
<path d="M89.9136 40.6039H84.5039V46.0136H89.9136V40.6039Z" fill="#D9B351"/>
<path d="M81.1508 56.1787V58.6201C81.1508 58.7192 81.1732 58.7944 81.218 58.8455C81.2628 58.8967 81.3427 58.9383 81.4578 58.9702V59.1237H80.0908V58.9702C80.2059 58.9383 80.2859 58.8967 80.3306 58.8455C80.3754 58.7944 80.3978 58.7192 80.3978 58.6201V53.0754C80.3978 52.9794 80.3754 52.9059 80.3306 52.8547C80.2859 52.8036 80.2059 52.762 80.0908 52.73V52.5765H83.5347C84.0175 52.5765 84.3933 52.6021 84.6619 52.6533C84.9305 52.7044 85.1703 52.7972 85.3813 52.9315C85.602 53.0658 85.7794 53.2496 85.9137 53.4831C86.064 53.7453 86.1392 54.0395 86.1392 54.3656C86.1392 54.8133 86.0017 55.197 85.7267 55.5168C85.5156 55.763 85.247 55.9357 84.9209 56.0348C84.5979 56.1307 84.1358 56.1787 83.5347 56.1787H81.1508ZM81.1508 55.5552H83.6066C83.9712 55.5552 84.2414 55.5408 84.4172 55.512C84.5963 55.4832 84.7562 55.4272 84.8969 55.3441C85.223 55.1522 85.3861 54.8309 85.3861 54.38C85.3861 53.9259 85.223 53.603 84.8969 53.4111C84.7562 53.328 84.5979 53.272 84.422 53.2433C84.2462 53.2145 83.9744 53.2001 83.6066 53.2001H81.1508V55.5552Z" fill="white"/>
<path d="M88.0386 56.6919V58.5817C88.0386 58.7128 88.0594 58.8072 88.1009 58.8647C88.1425 58.9191 88.224 58.9622 88.3456 58.9942V59.1237H87.0457V58.9942C87.1704 58.9622 87.252 58.9191 87.2903 58.8647C87.3319 58.8072 87.3527 58.7128 87.3527 58.5817V54.2937C87.3527 54.1594 87.3319 54.065 87.2903 54.0107C87.2488 53.9563 87.1672 53.9132 87.0457 53.8812V53.7517H90.2354C90.5967 53.7517 90.8909 53.7773 91.1179 53.8284C91.3481 53.8796 91.548 53.9659 91.7175 54.0874C92.0884 54.3496 92.2739 54.7334 92.2739 55.2386C92.2739 55.6511 92.1444 55.9772 91.8854 56.2171C91.6263 56.4537 91.2458 56.596 90.7438 56.644L92.0916 58.7832C92.1396 58.8599 92.1859 58.9127 92.2307 58.9415C92.2787 58.967 92.3618 58.9878 92.4801 59.0038V59.1237H91.1515V58.9942C91.2762 58.9686 91.3386 58.9287 91.3386 58.8743C91.3386 58.8359 91.3018 58.7592 91.2282 58.6441L89.9907 56.6919H88.0386ZM88.0386 56.1691H90.0819C90.4112 56.1691 90.6575 56.1579 90.8205 56.1355C90.9868 56.1099 91.1275 56.0652 91.2426 56.0012C91.4952 55.8605 91.6215 55.6159 91.6215 55.2674C91.6215 54.9316 91.5032 54.679 91.2666 54.5095C91.0492 54.3528 90.6798 54.2745 90.1586 54.2745H88.0386V56.1691Z" fill="white"/>
<path d="M96.3413 53.6366C97.2974 53.6366 98.068 53.886 98.6532 54.3848C99.2767 54.9124 99.5885 55.6095 99.5885 56.4761C99.5885 57.0165 99.435 57.5121 99.128 57.963C98.5493 58.8136 97.6235 59.2388 96.3509 59.2388C95.4012 59.2388 94.6337 58.9894 94.0486 58.4906C93.425 57.9598 93.1133 57.2755 93.1133 56.4377C93.1133 55.8717 93.2651 55.3633 93.5689 54.9124C93.8919 54.436 94.3443 54.089 94.9263 53.8716C95.326 53.7213 95.7977 53.643 96.3413 53.6366ZM96.3413 54.193C95.5611 54.193 94.9327 54.4328 94.4563 54.9124C94.0406 55.3281 93.8327 55.8365 93.8327 56.4377C93.8327 57.0389 94.0406 57.5473 94.4563 57.963C94.9327 58.4426 95.5643 58.6825 96.3509 58.6825C97.1375 58.6825 97.769 58.4426 98.2455 57.963C98.6612 57.5473 98.869 57.0485 98.869 56.4665C98.869 55.8365 98.6612 55.3185 98.2455 54.9124C97.7658 54.4392 97.1311 54.1993 96.3413 54.193Z" fill="white"/>
<path d="M101.603 56.7111V58.6249C101.603 58.7208 101.624 58.7944 101.665 58.8455C101.71 58.8967 101.787 58.9383 101.896 58.9702V59.1237H100.61V58.9702C100.725 58.9383 100.805 58.8967 100.85 58.8455C100.895 58.7944 100.917 58.7208 100.917 58.6249V54.2169C100.917 54.1242 100.893 54.0555 100.845 54.0107C100.8 53.9627 100.722 53.9244 100.61 53.8956V53.7517H103.584C103.98 53.7517 104.279 53.7693 104.481 53.8044C104.686 53.8396 104.869 53.9068 105.032 54.0059C105.228 54.121 105.381 54.2889 105.493 54.5095C105.605 54.727 105.661 54.9684 105.661 55.2338C105.661 55.4992 105.605 55.739 105.493 55.9533C105.384 56.1675 105.229 56.3338 105.028 56.4521C104.861 56.5544 104.678 56.6232 104.476 56.6583C104.275 56.6935 103.977 56.7111 103.584 56.7111H101.603ZM101.603 56.1883H103.493C103.835 56.1883 104.088 56.1755 104.251 56.1499C104.414 56.1211 104.553 56.0684 104.668 55.9916C104.892 55.8445 105.004 55.5903 105.004 55.229C105.004 54.8741 104.892 54.6214 104.668 54.4711C104.553 54.3944 104.414 54.3432 104.251 54.3177C104.091 54.2889 103.838 54.2745 103.493 54.2745H101.603V56.1883Z" fill="white"/>
<path d="M107.503 56.6104V58.6009H110.822C110.956 58.6009 111.05 58.5801 111.105 58.5386C111.162 58.497 111.206 58.4139 111.234 58.2891H111.369V59.4307H111.234C111.206 59.3092 111.164 59.2277 111.11 59.1861C111.055 59.1445 110.961 59.1237 110.827 59.1237H106.51V58.9942C106.635 58.9622 106.716 58.9191 106.754 58.8647C106.796 58.8072 106.817 58.7128 106.817 58.5817V54.2937C106.817 54.1594 106.796 54.065 106.754 54.0107C106.713 53.9563 106.631 53.9132 106.51 53.8812V53.7517H110.793C110.927 53.7517 111.022 53.7309 111.076 53.6893C111.13 53.6478 111.174 53.5662 111.206 53.4447H111.335V54.5863H111.206C111.174 54.4616 111.13 54.3784 111.076 54.3368C111.022 54.2953 110.927 54.2745 110.793 54.2745H107.503V56.0876H109.599C109.733 56.0876 109.827 56.0668 109.882 56.0252C109.936 55.9836 109.979 55.9021 110.011 55.7806H110.141V56.9221H110.011C109.979 56.7974 109.934 56.7143 109.877 56.6727C109.823 56.6312 109.73 56.6104 109.599 56.6104H107.503Z" fill="white"/>
<path d="M113.364 56.6919V58.5817C113.364 58.7128 113.385 58.8072 113.426 58.8647C113.468 58.9191 113.549 58.9622 113.671 58.9942V59.1237H112.371V58.9942C112.496 58.9622 112.577 58.9191 112.616 58.8647C112.657 58.8072 112.678 58.7128 112.678 58.5817V54.2937C112.678 54.1594 112.657 54.065 112.616 54.0107C112.574 53.9563 112.493 53.9132 112.371 53.8812V53.7517H115.561C115.922 53.7517 116.216 53.7773 116.443 53.8284C116.674 53.8796 116.873 53.9659 117.043 54.0874C117.414 54.3496 117.599 54.7334 117.599 55.2386C117.599 55.6511 117.47 55.9772 117.211 56.2171C116.952 56.4537 116.571 56.596 116.069 56.644L117.417 58.7832C117.465 58.8599 117.511 58.9127 117.556 58.9415C117.604 58.967 117.687 58.9878 117.806 59.0038V59.1237H116.477V58.9942C116.602 58.9686 116.664 58.9287 116.664 58.8743C116.664 58.8359 116.627 58.7592 116.554 58.6441L115.316 56.6919H113.364ZM113.364 56.1691H115.407C115.737 56.1691 115.983 56.1579 116.146 56.1355C116.312 56.1099 116.453 56.0652 116.568 56.0012C116.821 55.8605 116.947 55.6159 116.947 55.2674C116.947 54.9316 116.829 54.679 116.592 54.5095C116.375 54.3528 116.005 54.2745 115.484 54.2745H113.364V56.1691Z" fill="white"/>
<path d="M121.24 54.3033V58.5817C121.24 58.7128 121.259 58.8072 121.297 58.8647C121.339 58.9191 121.422 58.9622 121.547 58.9942V59.1237H120.247V58.9942C120.368 58.9622 120.45 58.9191 120.492 58.8647C120.533 58.8072 120.554 58.7128 120.554 58.5817V54.3033H118.803C118.669 54.3033 118.575 54.3241 118.52 54.3656C118.466 54.4072 118.423 54.4903 118.391 54.615H118.261V53.4735H118.391C118.423 53.595 118.466 53.6765 118.52 53.7181C118.575 53.7597 118.669 53.7805 118.803 53.7805H122.99C123.125 53.7805 123.219 53.7597 123.273 53.7181C123.328 53.6765 123.371 53.595 123.403 53.4735H123.533V54.615H123.403C123.371 54.4903 123.326 54.4072 123.269 54.3656C123.214 54.3241 123.122 54.3033 122.99 54.3033H121.24Z" fill="white"/>
<path d="M126.684 56.7543V58.5817C126.684 58.7128 126.703 58.8072 126.741 58.8647C126.783 58.9191 126.866 58.9622 126.991 58.9942V59.1237H125.691V58.9942C125.812 58.9622 125.894 58.9191 125.936 58.8647C125.977 58.8072 125.998 58.7128 125.998 58.5817V56.7543L124.343 54.5959C124.142 54.3305 123.993 54.1546 123.897 54.0682C123.801 53.9819 123.688 53.9196 123.556 53.8812V53.7517H125.072V53.8812C124.931 53.9036 124.861 53.9643 124.861 54.0634C124.861 54.153 124.904 54.2537 124.991 54.3656L126.406 56.2219L127.686 54.3704C127.776 54.2393 127.821 54.1402 127.821 54.073C127.821 53.9643 127.749 53.9004 127.605 53.8812V53.7517H129.005V53.8812C128.861 53.9291 128.729 54.0123 128.607 54.1306C128.486 54.2457 128.319 54.4504 128.108 54.7445L126.684 56.7543Z" fill="white"/>
<path d="M138.277 52.9794L137.591 54.2169L137.457 54.145C137.511 54.0011 137.538 53.9116 137.538 53.8764C137.538 53.7805 137.42 53.6765 137.183 53.5646C136.541 53.264 135.859 53.1137 135.14 53.1137C134.548 53.1137 134.034 53.2241 133.596 53.4447C133.384 53.5534 133.217 53.6941 133.092 53.8668C132.97 54.0395 132.91 54.2217 132.91 54.4136C132.91 54.5735 132.958 54.7254 133.054 54.8693C133.149 55.01 133.276 55.1155 133.432 55.1858C133.605 55.2658 133.808 55.3217 134.042 55.3537C134.278 55.3825 134.662 55.4049 135.193 55.4209C135.928 55.4432 136.454 55.4784 136.771 55.5264C137.087 55.5711 137.348 55.6511 137.553 55.7662C138.096 56.07 138.368 56.532 138.368 57.1524C138.368 57.7439 138.122 58.2284 137.629 58.6057C137.083 59.0278 136.329 59.2388 135.37 59.2388C134.817 59.2388 134.334 59.1829 133.922 59.071C133.509 58.9591 133.017 58.7528 132.444 58.4522C132.284 58.3787 132.19 58.3419 132.161 58.3419C132.113 58.3419 132.038 58.3995 131.936 58.5146L131.806 58.433L132.526 57.2291L132.66 57.3059C132.599 57.4338 132.569 57.5201 132.569 57.5649C132.569 57.6672 132.774 57.8255 133.183 58.0397C133.551 58.2316 133.904 58.3707 134.243 58.457C134.585 58.5402 134.956 58.5817 135.356 58.5817C136.165 58.5817 136.779 58.4043 137.198 58.0493C137.476 57.8127 137.615 57.5313 137.615 57.2051C137.615 56.7767 137.377 56.4809 136.9 56.3178C136.747 56.2634 136.587 56.2299 136.421 56.2171C136.258 56.2011 135.791 56.1787 135.02 56.1499C134.47 56.1275 134.038 56.086 133.725 56.0252C133.415 55.9645 133.138 55.8653 132.895 55.7278C132.668 55.5999 132.488 55.4209 132.353 55.1906C132.222 54.9604 132.157 54.7094 132.157 54.4376C132.157 53.9739 132.329 53.5758 132.675 53.2433C132.93 53.0002 133.284 52.81 133.735 52.6725C134.185 52.5318 134.68 52.4614 135.217 52.4614C135.655 52.4614 136.061 52.5046 136.435 52.5909C136.812 52.6773 137.238 52.826 137.711 53.037C137.816 53.0818 137.882 53.1042 137.908 53.1042C137.965 53.1042 138.043 53.0402 138.143 52.9123L138.277 52.9794Z" fill="white"/>
<path d="M142.435 53.6366C143.392 53.6366 144.162 53.886 144.747 54.3848C145.371 54.9124 145.683 55.6095 145.683 56.4761C145.683 57.0165 145.529 57.5121 145.222 57.963C144.643 58.8136 143.718 59.2388 142.445 59.2388C141.495 59.2388 140.728 58.9894 140.143 58.4906C139.519 57.9598 139.207 57.2755 139.207 56.4377C139.207 55.8717 139.359 55.3633 139.663 54.9124C139.986 54.436 140.438 54.089 141.02 53.8716C141.42 53.7213 141.892 53.643 142.435 53.6366ZM142.435 54.193C141.655 54.193 141.027 54.4328 140.55 54.9124C140.135 55.3281 139.927 55.8365 139.927 56.4377C139.927 57.0389 140.135 57.5473 140.55 57.963C141.027 58.4426 141.658 58.6825 142.445 58.6825C143.232 58.6825 143.863 58.4426 144.34 57.963C144.755 57.5473 144.963 57.0485 144.963 56.4665C144.963 55.8365 144.755 55.3185 144.34 54.9124C143.86 54.4392 143.225 54.1993 142.435 54.193Z" fill="white"/>
<path d="M147.697 58.6009H150.973C151.107 58.6009 151.202 58.5801 151.256 58.5386C151.314 58.497 151.358 58.4139 151.39 58.2891H151.52V59.4307H151.39C151.358 59.3092 151.314 59.2277 151.256 59.1861C151.202 59.1445 151.107 59.1237 150.973 59.1237H146.704V58.9942C146.826 58.9622 146.907 58.9191 146.949 58.8647C146.99 58.8072 147.011 58.7128 147.011 58.5817V54.2937C147.011 54.1594 146.99 54.065 146.949 54.0107C146.907 53.9563 146.826 53.9132 146.704 53.8812V53.7517H148.004V53.8812C147.883 53.9132 147.801 53.9563 147.759 54.0107C147.718 54.065 147.697 54.1594 147.697 54.2937V58.6009Z" fill="white"/>
<path d="M153.088 54.2937V57.0517C153.088 57.4769 153.109 57.7711 153.151 57.9342C153.192 58.0941 153.283 58.2284 153.424 58.3371C153.712 58.5673 154.204 58.6825 154.901 58.6825C155.672 58.6825 156.193 58.5418 156.465 58.2604C156.564 58.1548 156.63 58.0253 156.662 57.8719C156.694 57.7152 156.71 57.4418 156.71 57.0517V54.2937C156.71 54.1626 156.689 54.0698 156.647 54.0155C156.606 53.9579 156.524 53.9132 156.403 53.8812V53.7517H157.587V53.8812C157.466 53.9132 157.384 53.9563 157.343 54.0107C157.301 54.065 157.281 54.1594 157.281 54.2937V57.1908C157.281 57.6832 157.239 58.0301 157.156 58.2316C157.015 58.5769 156.758 58.8311 156.384 58.9942C156.009 59.1573 155.495 59.2388 154.839 59.2388C153.899 59.2388 153.24 59.0646 152.863 58.716C152.681 58.5498 152.558 58.3627 152.494 58.1548C152.433 57.947 152.402 57.6256 152.402 57.1908V54.2937C152.402 54.1594 152.382 54.065 152.34 54.0107C152.299 53.9563 152.217 53.9132 152.096 53.8812V53.7517H153.395V53.8812C153.274 53.9132 153.192 53.9579 153.151 54.0155C153.109 54.0698 153.088 54.1626 153.088 54.2937Z" fill="white"/>
<path d="M161.118 54.3033V58.5817C161.118 58.7128 161.137 58.8072 161.175 58.8647C161.217 58.9191 161.3 58.9622 161.425 58.9942V59.1237H160.125V58.9942C160.246 58.9622 160.328 58.9191 160.369 58.8647C160.411 58.8072 160.432 58.7128 160.432 58.5817V54.3033H158.681C158.547 54.3033 158.452 54.3241 158.398 54.3656C158.344 54.4072 158.301 54.4903 158.269 54.615H158.139V53.4735H158.269C158.301 53.595 158.344 53.6765 158.398 53.7181C158.452 53.7597 158.547 53.7805 158.681 53.7805H162.868C163.003 53.7805 163.097 53.7597 163.151 53.7181C163.206 53.6765 163.249 53.595 163.281 53.4735H163.41V54.615H163.281C163.249 54.4903 163.204 54.4072 163.147 54.3656C163.092 54.3241 163 54.3033 162.868 54.3033H161.118Z" fill="white"/>
<path d="M164.374 58.5817V54.2937C164.374 54.1594 164.354 54.065 164.312 54.0107C164.271 53.9563 164.189 53.9132 164.068 53.8812V53.7517H165.367V53.8812C165.246 53.9132 165.164 53.9563 165.123 54.0107C165.081 54.065 165.06 54.1594 165.06 54.2937V58.5817C165.06 58.7128 165.081 58.8072 165.123 58.8647C165.164 58.9191 165.246 58.9622 165.367 58.9942V59.1237H164.068V58.9942C164.189 58.9622 164.271 58.9191 164.312 58.8647C164.354 58.8072 164.374 58.7128 164.374 58.5817Z" fill="white"/>
<path d="M169.622 53.6366C170.578 53.6366 171.349 53.886 171.934 54.3848C172.557 54.9124 172.869 55.6095 172.869 56.4761C172.869 57.0165 172.716 57.5121 172.409 57.963C171.83 58.8136 170.904 59.2388 169.631 59.2388C168.682 59.2388 167.914 58.9894 167.329 58.4906C166.706 57.9598 166.394 57.2755 166.394 56.4377C166.394 55.8717 166.546 55.3633 166.849 54.9124C167.172 54.436 167.625 54.089 168.207 53.8716C168.607 53.7213 169.078 53.643 169.622 53.6366ZM169.622 54.193C168.842 54.193 168.213 54.4328 167.737 54.9124C167.321 55.3281 167.113 55.8365 167.113 56.4377C167.113 57.0389 167.321 57.5473 167.737 57.963C168.213 58.4426 168.845 58.6825 169.631 58.6825C170.418 58.6825 171.05 58.4426 171.526 57.963C171.942 57.5473 172.15 57.0485 172.15 56.4665C172.15 55.8365 171.942 55.3185 171.526 54.9124C171.046 54.4392 170.412 54.1993 169.622 54.193Z" fill="white"/>
<path d="M174.768 54.5911V58.5817C174.768 58.7128 174.788 58.8072 174.826 58.8647C174.868 58.9191 174.951 58.9622 175.075 58.9942V59.1237H173.891V58.9942C174.015 58.9622 174.097 58.9191 174.135 58.8647C174.177 58.8072 174.198 58.7128 174.198 58.5817V54.2937C174.198 54.1594 174.177 54.065 174.135 54.0107C174.094 53.9563 174.012 53.9132 173.891 53.8812V53.7517H175.637V53.8812C175.47 53.9355 175.387 54.0187 175.387 54.1306C175.387 54.2265 175.448 54.3416 175.569 54.4759L178.74 58.0253V54.2937C178.74 54.1594 178.719 54.065 178.678 54.0107C178.636 53.9563 178.554 53.9132 178.433 53.8812V53.7517H179.618V53.8812C179.496 53.9132 179.415 53.9563 179.373 54.0107C179.332 54.065 179.311 54.1594 179.311 54.2937V58.5817C179.311 58.7128 179.33 58.8072 179.368 58.8647C179.41 58.9191 179.493 58.9622 179.618 58.9942V59.1237H178.212V58.9942C178.379 58.9527 178.462 58.8871 178.462 58.7976C178.462 58.7304 178.385 58.6105 178.232 58.4378L174.768 54.5911Z" fill="white"/>
<path d="M185.877 54.0299L185.349 55.0755L185.234 55.0179C185.25 54.9252 185.258 54.8613 185.258 54.8261C185.258 54.7493 185.154 54.6566 184.947 54.5479C184.505 54.3113 183.968 54.193 183.335 54.193C182.827 54.193 182.395 54.2873 182.04 54.4759C181.685 54.6678 181.507 54.9348 181.507 55.277C181.507 55.4304 181.552 55.5695 181.642 55.6943C181.731 55.8158 181.851 55.9021 182.002 55.9533C182.152 56.0044 182.315 56.038 182.491 56.054C182.667 56.07 183.044 56.0892 183.623 56.1115C184.106 56.1275 184.47 56.1579 184.716 56.2027C184.966 56.2474 185.178 56.3194 185.354 56.4185C185.543 56.524 185.692 56.6775 185.8 56.879C185.909 57.0772 185.963 57.2947 185.963 57.5313C185.963 58.0269 185.76 58.4218 185.354 58.716C184.868 59.0646 184.222 59.2388 183.416 59.2388C183.02 59.2388 182.603 59.1781 182.165 59.0566C181.73 58.9351 181.325 58.7688 180.951 58.5577C180.9 58.5258 180.862 58.5098 180.836 58.5098C180.788 58.5098 180.716 58.5657 180.62 58.6777L180.51 58.6057L181.119 57.5841L181.234 57.6512C181.225 57.6896 181.218 57.7152 181.215 57.728C181.199 57.7791 181.191 57.8207 181.191 57.8527C181.191 57.9422 181.354 58.0733 181.68 58.246C182.23 58.537 182.801 58.6825 183.393 58.6825C183.933 58.6825 184.382 58.5897 184.74 58.4043C184.913 58.3147 185.05 58.1948 185.153 58.0445C185.255 57.891 185.306 57.7312 185.306 57.5649C185.306 57.4114 185.263 57.2739 185.177 57.1524C185.09 57.0309 184.977 56.9445 184.836 56.8934C184.705 56.8486 184.558 56.8166 184.395 56.7974C184.235 56.7783 183.931 56.7607 183.484 56.7447C182.956 56.7223 182.579 56.6967 182.352 56.6679C182.125 56.636 181.91 56.5832 181.709 56.5097C181.453 56.4169 181.247 56.2666 181.09 56.0588C180.934 55.8445 180.855 55.5919 180.855 55.3009C180.855 54.7861 181.089 54.3816 181.555 54.0874C182.032 53.7869 182.638 53.6366 183.373 53.6366C184.045 53.6366 184.72 53.7869 185.397 54.0874C185.5 54.129 185.559 54.1498 185.575 54.1498C185.626 54.1498 185.687 54.0906 185.757 53.9723L185.877 54.0299Z" fill="white"/>
</svg>
