<svg width="120" height="39" viewBox="0 0 120 39" fill="none" xmlns="http://www.w3.org/2000/svg">
<path d="M31.0653 29.8611L55.2658 3.58903L60.4973 10.0234H61.8434L55.9818 2.80621H54.6357H46.063L21.1465 29.8611H17.9866L42.9126 2.80621H38.8458L13.9293 29.8611H12.4878L23.9723 17.2406H22.168L10.6835 29.8611H10.6166L9.83383 30.8062L4.125 37.0783H4.57369H5.9293H7.2849H11.3422H14.5021H24.4209H114.607V29.8611H31.0653Z" fill="#D9B351"/>
<path d="M81.0313 12.095L80.3821 14.3194L78.9883 18.7108C78.6956 19.5954 78.5046 20.1873 78.4155 20.4864C78.3201 20.7824 78.2342 21.0783 78.1482 21.3743L77.7091 23.0545L76.7067 16.916L75.9812 12.095H73.3368H70.6828L69.7282 16.1809L68.363 21.4697L67.9907 23.0735C67.7425 21.6511 67.5229 20.4387 67.3225 19.4459L66.3678 14.8349C66.2437 14.2525 66.0814 13.3456 65.8809 12.095H63.542H61.2031L61.8809 14.959L63.7902 23.5509C63.9812 24.4483 64.1244 25.1451 64.2198 25.6416L64.6112 27.7418H67.4752H70.3392L72.1817 21.0592C72.2867 20.6487 72.3917 20.2478 72.4871 19.8564L72.8881 18.0807C72.9645 18.8158 73.0313 19.3504 73.0695 19.7036C73.1077 20.0568 73.1554 20.391 73.2127 20.7156L74.1673 26.1762L74.4633 27.7227H77.4513H80.449L81.1459 25.4029L85.585 12.095H81.0313Z" fill="#D9B351"/>
<path d="M93.3362 15.9518C94.2052 15.534 95.1597 15.3248 96.1238 15.3409C96.6381 15.3442 97.1517 15.3824 97.6608 15.4554C98.2145 15.5318 98.94 15.675 99.8279 15.885L99.7515 14.5771C99.7515 14.0807 99.6942 13.6225 99.6847 13.1929V12.2382C98.2924 11.983 96.8806 11.8488 95.4651 11.8373C94.259 11.8365 93.0582 11.997 91.8947 12.3146C90.7435 12.6301 89.6641 13.1649 88.7157 13.8898C87.7684 14.6044 87.0084 15.538 86.5009 16.6106C85.9715 17.7827 85.7075 19.0573 85.7276 20.3433C85.7122 21.4392 85.9066 22.528 86.3004 23.5509C86.7081 24.5314 87.3666 25.3874 88.2097 26.033C89.0802 26.7246 90.075 27.2431 91.1405 27.5604C92.2654 27.8739 93.4287 28.0281 94.5964 28.0187C96.0608 28.0071 97.5223 27.8858 98.9687 27.6559C98.9687 27.2168 99.1023 26.5962 99.236 25.7943C99.3696 24.9924 99.4746 24.3623 99.5701 23.885C98.7784 24.0991 97.9752 24.268 97.1644 24.391C96.5793 24.475 95.9893 24.5197 95.3983 24.5246C94.5368 24.5502 93.6809 24.3771 92.8971 24.0187C92.239 23.6927 91.6815 23.1945 91.2837 22.5771C90.883 21.9088 90.6779 21.1415 90.6918 20.3623C90.6835 19.4452 90.9279 18.5435 91.3983 17.7561C91.8612 16.984 92.533 16.3585 93.3362 15.9518Z" fill="#D9B351"/>
<path d="M112.373 22.6917C112.311 22.4554 112.228 22.2253 112.125 22.0043C111.99 21.7355 111.83 21.4798 111.647 21.2406C111.422 20.9472 111.176 20.6697 110.912 20.41C110.663 20.1521 110.399 19.9098 110.12 19.6845L109.299 19.0353C108.717 18.5771 108.277 18.2334 108.01 17.9948C107.77 17.8008 107.546 17.5868 107.342 17.3551C107.2 17.207 107.083 17.036 106.998 16.8492C106.938 16.707 106.906 16.5547 106.903 16.4005C106.915 16.2219 106.976 16.0503 107.081 15.9051C107.186 15.7599 107.329 15.6471 107.495 15.5795C107.954 15.3423 108.467 15.2272 108.984 15.2454C109.487 15.2558 109.989 15.3101 110.483 15.4076C111.135 15.5483 111.774 15.7463 112.392 15.9995C112.277 14.9017 112.211 14.0902 112.172 13.6988C112.134 13.3074 112.115 12.7442 112.096 12.2477C110.706 11.9762 109.293 11.8388 107.876 11.8372C107.237 11.8348 106.598 11.8859 105.967 11.99C105.361 12.0913 104.775 12.2879 104.23 12.5723C103.733 12.8193 103.289 13.1597 102.922 13.5747C102.606 13.949 102.357 14.3754 102.187 14.8349C102.024 15.2716 101.94 15.7338 101.939 16.2C101.94 16.5743 101.991 16.9468 102.091 17.3074C102.204 17.6712 102.371 18.0157 102.588 18.3289C102.87 18.7217 103.19 19.0861 103.542 19.4172C103.743 19.6081 104.096 19.9136 104.602 20.3719L106.76 22.2812C106.932 22.4233 107.086 22.5869 107.218 22.768C107.312 22.8889 107.386 23.0243 107.437 23.169C107.476 23.2892 107.496 23.4149 107.495 23.5413C107.49 23.7265 107.432 23.9063 107.326 24.0589C107.221 24.2115 107.074 24.3302 106.903 24.4005C106.401 24.6201 105.856 24.7214 105.308 24.6964C104.716 24.6854 104.127 24.6086 103.552 24.4673C102.763 24.2815 101.996 24.016 101.261 23.675C101.394 24.6296 101.509 25.9566 101.604 27.5795C103.147 27.9015 104.716 28.0805 106.292 28.1141C107.059 28.119 107.824 28.039 108.573 27.8754C109.282 27.7212 109.955 27.4363 110.559 27.0353C111.139 26.6538 111.617 26.1357 111.95 25.5265C112.282 24.9172 112.461 24.2355 112.468 23.5413C112.468 23.2554 112.436 22.9704 112.373 22.6917Z" fill="#D9B351"/>
<path d="M53.948 19.4936H50.7021V22.7394H53.948V19.4936Z" fill="#D9B351"/>
<path d="M59.1404 19.4936H55.8945V22.7394H59.1404V19.4936Z" fill="#D9B351"/>
<path d="M59.1404 24.3623H55.8945V27.6081H59.1404V24.3623Z" fill="#D9B351"/>
<path d="M53.948 24.3623H50.7021V27.6081H53.948V24.3623Z" fill="#D9B351"/>
<path d="M48.6907 33.7072V35.1721C48.6907 35.2315 48.7041 35.2766 48.731 35.3073C48.7579 35.338 48.8058 35.363 48.8749 35.3822V35.4743H48.0547V35.3822C48.1238 35.363 48.1717 35.338 48.1986 35.3073C48.2254 35.2766 48.2389 35.2315 48.2389 35.1721V31.8452C48.2389 31.7877 48.2254 31.7436 48.1986 31.7129C48.1717 31.6822 48.1238 31.6572 48.0547 31.638V31.5459H50.121C50.4107 31.5459 50.6362 31.5613 50.7973 31.592C50.9585 31.6227 51.1024 31.6783 51.229 31.7589C51.3614 31.8395 51.4679 31.9498 51.5484 32.0899C51.6386 32.2472 51.6837 32.4237 51.6837 32.6194C51.6837 32.888 51.6012 33.1182 51.4362 33.3101C51.3096 33.4578 51.1484 33.5614 50.9527 33.6209C50.7589 33.6785 50.4817 33.7072 50.121 33.7072H48.6907ZM48.6907 33.3331H50.1642C50.3829 33.3331 50.545 33.3245 50.6505 33.3072C50.758 33.2899 50.8539 33.2564 50.9383 33.2065C51.134 33.0914 51.2319 32.8985 51.2319 32.628C51.2319 32.3556 51.134 32.1618 50.9383 32.0467C50.8539 31.9968 50.7589 31.9632 50.6534 31.946C50.5479 31.9287 50.3848 31.9201 50.1642 31.9201H48.6907V33.3331Z" fill="white"/>
<path d="M52.8233 34.0152V35.149C52.8233 35.2277 52.8358 35.2843 52.8608 35.3188C52.8857 35.3515 52.9346 35.3774 53.0075 35.3965V35.4743H52.2276V35.3965C52.3024 35.3774 52.3514 35.3515 52.3744 35.3188C52.3993 35.2843 52.4118 35.2277 52.4118 35.149V32.5762C52.4118 32.4956 52.3993 32.439 52.3744 32.4064C52.3495 32.3738 52.3005 32.3479 52.2276 32.3287V32.251H54.1414C54.3582 32.251 54.5347 32.2664 54.6709 32.2971C54.8091 32.3278 54.929 32.3796 55.0307 32.4525C55.2532 32.6098 55.3645 32.84 55.3645 33.1432C55.3645 33.3907 55.2868 33.5864 55.1314 33.7303C54.976 33.8722 54.7477 33.9576 54.4465 33.9864L55.2552 35.2699C55.2839 35.316 55.3118 35.3476 55.3386 35.3649C55.3674 35.3802 55.4173 35.3927 55.4883 35.4023V35.4743H54.6911V35.3965C54.7659 35.3812 54.8033 35.3572 54.8033 35.3246C54.8033 35.3016 54.7813 35.2555 54.7371 35.1865L53.9946 34.0152H52.8233ZM52.8233 33.7015H54.0493C54.2469 33.7015 54.3947 33.6948 54.4925 33.6813C54.5923 33.666 54.6767 33.6391 54.7458 33.6007C54.8973 33.5163 54.9731 33.3696 54.9731 33.1604C54.9731 32.959 54.9021 32.8074 54.7602 32.7057C54.6297 32.6117 54.4081 32.5647 54.0954 32.5647H52.8233V33.7015Z" fill="white"/>
<path d="M57.805 32.1819C58.3786 32.1819 58.841 32.3316 59.1921 32.6309C59.5662 32.9475 59.7533 33.3657 59.7533 33.8857C59.7533 34.2099 59.6612 34.5073 59.477 34.7778C59.1298 35.2881 58.5743 35.5433 57.8107 35.5433C57.2409 35.5433 56.7804 35.3937 56.4293 35.0944C56.0552 34.7759 55.8681 34.3653 55.8681 33.8626C55.8681 33.523 55.9593 33.218 56.1415 32.9475C56.3353 32.6616 56.6068 32.4534 56.956 32.323C57.1958 32.2328 57.4788 32.1858 57.805 32.1819ZM57.805 32.5158C57.3368 32.5158 56.9598 32.6597 56.674 32.9475C56.4245 33.1969 56.2998 33.5019 56.2998 33.8626C56.2998 34.2233 56.4245 34.5284 56.674 34.7778C56.9598 35.0656 57.3387 35.2095 57.8107 35.2095C58.2827 35.2095 58.6616 35.0656 58.9475 34.7778C59.1969 34.5284 59.3216 34.2291 59.3216 33.8799C59.3216 33.5019 59.1969 33.1911 58.9475 32.9475C58.6597 32.6635 58.2789 32.5196 57.805 32.5158Z" fill="white"/>
<path d="M60.962 34.0267V35.175C60.962 35.2325 60.9745 35.2766 60.9994 35.3073C61.0263 35.338 61.0723 35.363 61.1376 35.3822V35.4743H60.3663V35.3822C60.4354 35.363 60.4833 35.338 60.5102 35.3073C60.537 35.2766 60.5505 35.2325 60.5505 35.175V32.5302C60.5505 32.4745 60.5361 32.4333 60.5073 32.4064C60.4804 32.3776 60.4334 32.3546 60.3663 32.3374V32.251H62.1506C62.3885 32.251 62.5679 32.2616 62.6887 32.2827C62.8115 32.3038 62.9218 32.3441 63.0197 32.4035C63.1367 32.4726 63.2288 32.5733 63.296 32.7057C63.3631 32.8362 63.3967 32.981 63.3967 33.1403C63.3967 33.2995 63.3631 33.4434 63.296 33.572C63.2307 33.7005 63.1377 33.8003 63.0168 33.8713C62.917 33.9327 62.8067 33.9739 62.6859 33.995C62.565 34.0161 62.3866 34.0267 62.1506 34.0267H60.962ZM60.962 33.713H62.0959C62.3012 33.713 62.4527 33.7053 62.5506 33.69C62.6484 33.6727 62.7319 33.641 62.801 33.595C62.9353 33.5067 63.0024 33.3542 63.0024 33.1374C63.0024 32.9244 62.9353 32.7729 62.801 32.6827C62.7319 32.6367 62.6484 32.606 62.5506 32.5906C62.4547 32.5733 62.3031 32.5647 62.0959 32.5647H60.962V33.713Z" fill="white"/>
<path d="M64.5018 33.9662V35.1606H66.4933C66.5739 35.1606 66.6305 35.1481 66.6631 35.1231C66.6976 35.0982 66.7235 35.0483 66.7408 34.9735H66.8214V35.6584H66.7408C66.7235 35.5855 66.6986 35.5366 66.666 35.5117C66.6334 35.4867 66.5768 35.4743 66.4962 35.4743H63.9061V35.3965C63.9809 35.3774 64.0298 35.3515 64.0529 35.3188C64.0778 35.2843 64.0903 35.2277 64.0903 35.149V32.5762C64.0903 32.4956 64.0778 32.439 64.0529 32.4064C64.0279 32.3738 63.979 32.3479 63.9061 32.3287V32.251H66.476C66.5566 32.251 66.6132 32.2385 66.6458 32.2136C66.6784 32.1887 66.7043 32.1397 66.7235 32.0668H66.8012V32.7518H66.7235C66.7043 32.6769 66.6784 32.6271 66.6458 32.6021C66.6132 32.5772 66.5566 32.5647 66.476 32.5647H64.5018V33.6525H65.7594C65.84 33.6525 65.8966 33.6401 65.9292 33.6151C65.9619 33.5902 65.9878 33.5413 66.0069 33.4684H66.0846V34.1533H66.0069C65.9878 34.0785 65.9609 34.0286 65.9264 34.0037C65.8937 33.9787 65.8381 33.9662 65.7594 33.9662H64.5018Z" fill="white"/>
<path d="M68.0186 34.0152V35.149C68.0186 35.2277 68.0311 35.2843 68.056 35.3188C68.0809 35.3515 68.1299 35.3774 68.2028 35.3965V35.4743H67.4229V35.3965C67.4977 35.3774 67.5466 35.3515 67.5696 35.3188C67.5946 35.2843 67.607 35.2277 67.607 35.149V32.5762C67.607 32.4956 67.5946 32.439 67.5696 32.4064C67.5447 32.3738 67.4958 32.3479 67.4229 32.3287V32.251H69.3367C69.5535 32.251 69.73 32.2664 69.8662 32.2971C70.0043 32.3278 70.1242 32.3796 70.2259 32.4525C70.4485 32.6098 70.5598 32.84 70.5598 33.1432C70.5598 33.3907 70.482 33.5864 70.3266 33.7303C70.1712 33.8722 69.9429 33.9576 69.6417 33.9864L70.4504 35.2699C70.4792 35.316 70.507 35.3476 70.5339 35.3649C70.5626 35.3802 70.6125 35.3927 70.6835 35.4023V35.4743H69.8863V35.3965C69.9612 35.3812 69.9986 35.3572 69.9986 35.3246C69.9986 35.3016 69.9765 35.2555 69.9324 35.1865L69.1899 34.0152H68.0186ZM68.0186 33.7015H69.2446C69.4422 33.7015 69.5899 33.6948 69.6878 33.6813C69.7875 33.666 69.8719 33.6391 69.941 33.6007C70.0926 33.5163 70.1684 33.3696 70.1684 33.1604C70.1684 32.959 70.0974 32.8074 69.9554 32.7057C69.8249 32.6117 69.6033 32.5647 69.2906 32.5647H68.0186V33.7015Z" fill="white"/>
<path d="M72.7441 32.582V35.149C72.7441 35.2277 72.7556 35.2843 72.7786 35.3188C72.8035 35.3515 72.8534 35.3774 72.9283 35.3965V35.4743H72.1483V35.3965C72.2213 35.3774 72.2702 35.3515 72.2951 35.3188C72.3201 35.2843 72.3325 35.2277 72.3325 35.149V32.582H71.2821C71.2015 32.582 71.1449 32.5944 71.1123 32.6194C71.0797 32.6443 71.0538 32.6942 71.0346 32.769H70.9569V32.0841H71.0346C71.0538 32.157 71.0797 32.2059 71.1123 32.2309C71.1449 32.2558 71.2015 32.2683 71.2821 32.2683H73.7945C73.8751 32.2683 73.9317 32.2558 73.9643 32.2309C73.9969 32.2059 74.0228 32.157 74.042 32.0841H74.1197V32.769H74.042C74.0228 32.6942 73.9959 32.6443 73.9614 32.6194C73.9288 32.5944 73.8732 32.582 73.7945 32.582H72.7441Z" fill="white"/>
<path d="M76.0105 34.0526V35.149C76.0105 35.2277 76.022 35.2843 76.045 35.3188C76.0699 35.3515 76.1198 35.3774 76.1947 35.3965V35.4743H75.4147V35.3965C75.4877 35.3774 75.5366 35.3515 75.5615 35.3188C75.5865 35.2843 75.5989 35.2277 75.5989 35.149V34.0526L74.6061 32.7575C74.4852 32.5983 74.396 32.4928 74.3384 32.441C74.2809 32.3892 74.2127 32.3517 74.1341 32.3287V32.251H75.0435V32.3287C74.9591 32.3422 74.9169 32.3786 74.9169 32.4381C74.9169 32.4918 74.9428 32.5522 74.9946 32.6194L75.8436 33.7331L76.6119 32.6223C76.6657 32.5436 76.6925 32.4841 76.6925 32.4438C76.6925 32.3786 76.6494 32.3402 76.563 32.3287V32.251H77.4034V32.3287C77.317 32.3575 77.2374 32.4074 77.1645 32.4784C77.0916 32.5474 76.9918 32.6702 76.8652 32.8467L76.0105 34.0526Z" fill="white"/>
<path d="M82.9663 31.7877L82.5548 32.5302L82.4742 32.487C82.5068 32.4007 82.5231 32.3469 82.5231 32.3258C82.5231 32.2683 82.4521 32.2059 82.3102 32.1388C81.9245 31.9584 81.5159 31.8683 81.0842 31.8683C80.7292 31.8683 80.4203 31.9345 80.1575 32.0668C80.0309 32.1321 79.9301 32.2165 79.8553 32.3201C79.7824 32.4237 79.746 32.5331 79.746 32.6482C79.746 32.7441 79.7747 32.8352 79.8323 32.9216C79.8899 33.006 79.9656 33.0693 80.0597 33.1115C80.1633 33.1595 80.2851 33.193 80.4251 33.2122C80.5671 33.2295 80.7974 33.2429 81.1158 33.2525C81.5571 33.266 81.8727 33.2871 82.0627 33.3158C82.2526 33.3427 82.409 33.3907 82.5318 33.4597C82.8579 33.642 83.021 33.9192 83.021 34.2914C83.021 34.6464 82.8733 34.937 82.5778 35.1634C82.2497 35.4167 81.7979 35.5433 81.2223 35.5433C80.8904 35.5433 80.6007 35.5097 80.3532 35.4426C80.1057 35.3754 79.8102 35.2517 79.4668 35.0713C79.3709 35.0272 79.3143 35.0052 79.297 35.0052C79.2682 35.0052 79.2231 35.0397 79.1618 35.1088L79.0841 35.0598L79.5157 34.3375L79.5963 34.3835C79.5599 34.4603 79.5416 34.5121 79.5416 34.5389C79.5416 34.6003 79.6644 34.6953 79.91 34.8238C80.1306 34.939 80.3426 35.0224 80.546 35.0742C80.7513 35.1241 80.9739 35.149 81.2137 35.149C81.6991 35.149 82.0675 35.0426 82.3188 34.8296C82.4857 34.6876 82.5692 34.5188 82.5692 34.3231C82.5692 34.066 82.4262 33.8885 82.1404 33.7907C82.0483 33.7581 81.9523 33.7379 81.8526 33.7303C81.7547 33.7207 81.4746 33.7072 81.0122 33.69C80.6822 33.6765 80.4232 33.6516 80.2352 33.6151C80.0491 33.5787 79.8831 33.5192 79.7373 33.4367C79.6011 33.36 79.4927 33.2525 79.4121 33.1144C79.3335 32.9762 79.2941 32.8256 79.2941 32.6626C79.2941 32.3844 79.3977 32.1455 79.6049 31.946C79.7584 31.8002 79.9704 31.686 80.241 31.6035C80.5115 31.5191 80.8079 31.4769 81.1302 31.4769C81.3931 31.4769 81.6367 31.5028 81.8612 31.5546C82.0876 31.6064 82.3428 31.6956 82.6267 31.8222C82.69 31.8491 82.7294 31.8625 82.7447 31.8625C82.7793 31.8625 82.8263 31.8241 82.8857 31.7474L82.9663 31.7877Z" fill="white"/>
<path d="M85.4614 32.1819C86.0351 32.1819 86.4975 32.3316 86.8486 32.6309C87.2227 32.9475 87.4098 33.3657 87.4098 33.8857C87.4098 34.2099 87.3177 34.5073 87.1335 34.7778C86.7862 35.2881 86.2308 35.5433 85.4672 35.5433C84.8974 35.5433 84.4369 35.3937 84.0858 35.0944C83.7117 34.7759 83.5246 34.3653 83.5246 33.8626C83.5246 33.523 83.6158 33.218 83.798 32.9475C83.9918 32.6616 84.2633 32.4534 84.6125 32.323C84.8523 32.2328 85.1353 32.1858 85.4614 32.1819ZM85.4614 32.5158C84.9933 32.5158 84.6163 32.6597 84.3304 32.9475C84.081 33.1969 83.9563 33.5019 83.9563 33.8626C83.9563 34.2233 84.081 34.5284 84.3304 34.7778C84.6163 35.0656 84.9952 35.2095 85.4672 35.2095C85.9392 35.2095 86.3181 35.0656 86.604 34.7778C86.8534 34.5284 86.9781 34.2291 86.9781 33.8799C86.9781 33.5019 86.8534 33.1911 86.604 32.9475C86.3162 32.6635 85.9353 32.5196 85.4614 32.5158Z" fill="white"/>
<path d="M88.6185 35.1606H90.5841C90.6647 35.1606 90.7213 35.1481 90.7539 35.1231C90.7884 35.0982 90.8153 35.0483 90.8345 34.9735H90.9122V35.6584H90.8345C90.8153 35.5855 90.7884 35.5366 90.7539 35.5117C90.7213 35.4867 90.6647 35.4743 90.5841 35.4743H88.0228V35.3965C88.0957 35.3774 88.1446 35.3515 88.1695 35.3188C88.1945 35.2843 88.2069 35.2277 88.2069 35.149V32.5762C88.2069 32.4956 88.1945 32.439 88.1695 32.4064C88.1446 32.3738 88.0957 32.3479 88.0228 32.3287V32.251H88.8027V32.3287C88.7298 32.3479 88.6808 32.3738 88.6559 32.4064C88.631 32.439 88.6185 32.4956 88.6185 32.5762V35.1606Z" fill="white"/>
<path d="M91.8532 32.5762V34.231C91.8532 34.4862 91.8657 34.6627 91.8906 34.7605C91.9156 34.8565 91.9703 34.937 92.0547 35.0023C92.2274 35.1404 92.5228 35.2095 92.9411 35.2095C93.4035 35.2095 93.7162 35.1251 93.8793 34.9562C93.9387 34.8929 93.9781 34.8152 93.9973 34.7231C94.0164 34.6291 94.026 34.4651 94.026 34.231V32.5762C94.026 32.4976 94.0136 32.4419 93.9886 32.4093C93.9637 32.3748 93.9148 32.3479 93.8419 32.3287V32.251H94.5527V32.3287C94.4798 32.3479 94.4309 32.3738 94.4059 32.4064C94.381 32.439 94.3685 32.4956 94.3685 32.5762V34.3145C94.3685 34.6099 94.3436 34.8181 94.2937 34.939C94.2093 35.1462 94.0548 35.2987 93.8303 35.3965C93.6059 35.4944 93.297 35.5433 92.9037 35.5433C92.3396 35.5433 91.9444 35.4388 91.718 35.2296C91.6086 35.1299 91.5347 35.0176 91.4964 34.8929C91.4599 34.7682 91.4417 34.5754 91.4417 34.3145V32.5762C91.4417 32.4956 91.4292 32.439 91.4043 32.4064C91.3793 32.3738 91.3304 32.3479 91.2575 32.3287V32.251H92.0374V32.3287C91.9645 32.3479 91.9156 32.3748 91.8906 32.4093C91.8657 32.4419 91.8532 32.4976 91.8532 32.5762Z" fill="white"/>
<path d="M96.6708 32.582V35.149C96.6708 35.2277 96.6823 35.2843 96.7053 35.3188C96.7303 35.3515 96.7802 35.3774 96.855 35.3965V35.4743H96.0751V35.3965C96.148 35.3774 96.1969 35.3515 96.2219 35.3188C96.2468 35.2843 96.2593 35.2277 96.2593 35.149V32.582H95.2088C95.1283 32.582 95.0717 32.5944 95.0391 32.6194C95.0064 32.6443 94.9805 32.6942 94.9613 32.769H94.8836V32.0841H94.9613C94.9805 32.157 95.0064 32.2059 95.0391 32.2309C95.0717 32.2558 95.1283 32.2683 95.2088 32.2683H97.7212C97.8018 32.2683 97.8584 32.2558 97.891 32.2309C97.9236 32.2059 97.9496 32.157 97.9687 32.0841H98.0464V32.769H97.9687C97.9496 32.6942 97.9227 32.6443 97.8882 32.6194C97.8555 32.5944 97.7999 32.582 97.7212 32.582H96.6708Z" fill="white"/>
<path d="M98.6249 35.149V32.5762C98.6249 32.4956 98.6124 32.439 98.5875 32.4064C98.5625 32.3738 98.5136 32.3479 98.4407 32.3287V32.251H99.2206V32.3287C99.1477 32.3479 99.0988 32.3738 99.0738 32.4064C99.0489 32.439 99.0364 32.4956 99.0364 32.5762V35.149C99.0364 35.2277 99.0489 35.2843 99.0738 35.3188C99.0988 35.3515 99.1477 35.3774 99.2206 35.3965V35.4743H98.4407V35.3965C98.5136 35.3774 98.5625 35.3515 98.5875 35.3188C98.6124 35.2843 98.6249 35.2277 98.6249 35.149Z" fill="white"/>
<path d="M101.773 32.1819C102.347 32.1819 102.809 32.3316 103.16 32.6309C103.535 32.9475 103.722 33.3657 103.722 33.8857C103.722 34.2099 103.63 34.5073 103.445 34.7778C103.098 35.2881 102.543 35.5433 101.779 35.5433C101.209 35.5433 100.749 35.3937 100.398 35.0944C100.024 34.7759 99.8365 34.3653 99.8365 33.8626C99.8365 33.523 99.9276 33.218 100.11 32.9475C100.304 32.6616 100.575 32.4534 100.924 32.323C101.164 32.2328 101.447 32.1858 101.773 32.1819ZM101.773 32.5158C101.305 32.5158 100.928 32.6597 100.642 32.9475C100.393 33.1969 100.268 33.5019 100.268 33.8626C100.268 34.2233 100.393 34.5284 100.642 34.7778C100.928 35.0656 101.307 35.2095 101.779 35.2095C102.251 35.2095 102.63 35.0656 102.916 34.7778C103.165 34.5284 103.29 34.2291 103.29 33.8799C103.29 33.5019 103.165 33.1911 102.916 32.9475C102.628 32.6635 102.247 32.5196 101.773 32.5158Z" fill="white"/>
<path d="M104.861 32.7546V35.149C104.861 35.2277 104.873 35.2843 104.896 35.3188C104.921 35.3515 104.971 35.3774 105.045 35.3965V35.4743H104.335V35.3965C104.409 35.3774 104.458 35.3515 104.481 35.3188C104.506 35.2843 104.519 35.2277 104.519 35.149V32.5762C104.519 32.4956 104.506 32.439 104.481 32.4064C104.456 32.3738 104.408 32.3479 104.335 32.3287V32.251H105.382V32.3287C105.282 32.3613 105.233 32.4112 105.233 32.4784C105.233 32.5359 105.269 32.605 105.342 32.6856L107.244 34.8152V32.5762C107.244 32.4956 107.232 32.439 107.207 32.4064C107.182 32.3738 107.133 32.3479 107.06 32.3287V32.251H107.771V32.3287C107.698 32.3479 107.649 32.3738 107.624 32.4064C107.599 32.439 107.587 32.4956 107.587 32.5762V35.149C107.587 35.2277 107.598 35.2843 107.621 35.3188C107.646 35.3515 107.696 35.3774 107.771 35.3965V35.4743H106.928V35.3965C107.027 35.3716 107.077 35.3323 107.077 35.2786C107.077 35.2383 107.031 35.1663 106.939 35.0627L104.861 32.7546Z" fill="white"/>
<path d="M111.526 32.4179L111.21 33.0453L111.141 33.0108C111.15 32.9551 111.155 32.9168 111.155 32.8957C111.155 32.8496 111.093 32.794 110.968 32.7287C110.703 32.5868 110.381 32.5158 110.001 32.5158C109.696 32.5158 109.437 32.5724 109.224 32.6856C109.011 32.8007 108.905 32.9609 108.905 33.1662C108.905 33.2583 108.932 33.3417 108.985 33.4166C109.039 33.4895 109.111 33.5413 109.201 33.572C109.291 33.6027 109.389 33.6228 109.495 33.6324C109.6 33.642 109.827 33.6535 110.174 33.6669C110.464 33.6765 110.682 33.6948 110.83 33.7216C110.98 33.7485 111.107 33.7916 111.213 33.8511C111.326 33.9144 111.415 34.0065 111.48 34.1274C111.546 34.2464 111.578 34.3768 111.578 34.5188C111.578 34.8162 111.456 35.0531 111.213 35.2296C110.921 35.4388 110.534 35.5433 110.05 35.5433C109.812 35.5433 109.562 35.5069 109.299 35.434C109.038 35.3611 108.795 35.2613 108.571 35.1347C108.54 35.1155 108.517 35.1059 108.502 35.1059C108.473 35.1059 108.43 35.1395 108.372 35.2066L108.306 35.1634L108.672 34.5504L108.741 34.5907C108.735 34.6138 108.731 34.6291 108.729 34.6368C108.72 34.6675 108.715 34.6924 108.715 34.7116C108.715 34.7653 108.813 34.844 109.008 34.9476C109.338 35.1222 109.681 35.2095 110.036 35.2095C110.36 35.2095 110.63 35.1538 110.844 35.0426C110.948 34.9888 111.031 34.9169 111.092 34.8267C111.153 34.7346 111.184 34.6387 111.184 34.5389C111.184 34.4468 111.158 34.3643 111.106 34.2914C111.054 34.2185 110.986 34.1667 110.902 34.136C110.823 34.1092 110.735 34.09 110.637 34.0785C110.541 34.067 110.359 34.0564 110.09 34.0468C109.774 34.0334 109.547 34.018 109.411 34.0008C109.275 33.9816 109.146 33.9499 109.026 33.9058C108.872 33.8502 108.748 33.76 108.654 33.6353C108.56 33.5067 108.513 33.3552 108.513 33.1806C108.513 32.8717 108.653 32.629 108.933 32.4525C109.219 32.2721 109.583 32.1819 110.024 32.1819C110.427 32.1819 110.832 32.2721 111.239 32.4525C111.3 32.4774 111.336 32.4899 111.345 32.4899C111.376 32.4899 111.412 32.4544 111.455 32.3834L111.526 32.4179Z" fill="white"/>
</svg>
