<svg width="28" height="28" viewBox="0 0 28 28" fill="none" xmlns="http://www.w3.org/2000/svg">
<path d="M3.38672 16.1908C3.38672 20.5663 5.24579 24.2844 9.33367 24.2844H18.6701C22.7477 24.2844 24.617 20.5765 24.617 16.1908" stroke="#1F1F1F" stroke-width="1.25713" stroke-miterlimit="22.9256" stroke-linecap="round" stroke-linejoin="round"/>
<path d="M26.1358 16.047H1.86523" stroke="#1F1F1F" stroke-width="1.25725" stroke-miterlimit="22.9256" stroke-linecap="round" stroke-linejoin="round"/>
<path d="M22.6235 25.753L21.7812 24.3048" stroke="#1F1F1F" stroke-width="1.25718" stroke-miterlimit="22.9256" stroke-linecap="round" stroke-linejoin="round"/>
<path d="M5.36914 25.753L6.21136 24.3048" stroke="#1F1F1F" stroke-width="1.25718" stroke-miterlimit="22.9256" stroke-linecap="round" stroke-linejoin="round"/>
<path d="M9.66951 4.09159C9.66951 2.39686 8.28292 1 6.57792 1C4.88319 1 3.48633 2.38659 3.48633 4.09159V15.1125" stroke="#1F1F1F" stroke-width="1.25712" stroke-miterlimit="22.9256" stroke-linecap="round" stroke-linejoin="round"/>
<path d="M13.5331 5.92997C13.0401 4.57419 11.7871 3.72168 10.7189 4.11198L8.97278 4.7488C7.90459 5.1391 7.48346 6.59758 7.97648 7.95337" stroke="#1F1F1F" stroke-width="1.25719" stroke-miterlimit="22.9256" stroke-linecap="round" stroke-linejoin="round"/>
<path d="M7.18555 8.41551L14.3753 5.79639" stroke="#1F1F1F" stroke-width="1.25717" stroke-miterlimit="22.9256" stroke-linecap="round" stroke-linejoin="round"/>
</svg>
