<svg width="26" height="26" viewBox="0 0 26 26" fill="none" xmlns="http://www.w3.org/2000/svg">
<path d="M22.6912 2.65365C22.6912 1.74979 21.9825 1 21.1094 1H4.8914C4.01836 1 3.30965 1.74979 3.30965 2.65365M22.7014 2.65365V10.1002M3.30965 10.0899V2.64337M25.3411 19.4777V24.9316H21.8592V22.1687H4.15189V24.9316H0.669993V19.4777H25.3411ZM20.5856 9.81258V8.33355C20.5856 7.32698 19.7947 6.5053 18.8395 6.5053H14.8749C13.9197 6.5053 13.1288 7.32698 13.1288 8.33355V9.44282L20.5856 9.81258ZM12.8823 9.44282V8.33355C12.8823 7.32698 12.0914 6.5053 11.1362 6.5053H7.17159C6.21638 6.5053 5.42551 7.32698 5.42551 8.33355V9.81258L12.8823 9.44282ZM3.28912 10.7883C9.42095 9.74068 18.8703 9.85366 22.7631 10.7883L25.3719 19.0976H0.628906L3.28912 10.7883Z" stroke="#1F1F1F" stroke-width="1.20172" stroke-miterlimit="22.9256" stroke-linecap="round" stroke-linejoin="round"/>
</svg>
