<svg width="28" height="28" viewBox="0 0 28 28" fill="none" xmlns="http://www.w3.org/2000/svg">
<path d="M24.5701 14.4529L25.0671 14.8836L27 12.7188L26.8895 12.6194L27 12.4979L24.6253 10.3772L24.6584 1.24299H21.0688L21.0025 7.14103L14.1215 1L14.011 1.09941L13.9006 1L1 12.4868L1.11045 12.6083L1 12.7077L2.93288 14.8726L3.39677 14.4639L3.3305 24.9456C3.3305 25.7961 4.04843 26.4919 4.8768 26.4919H23.1121C23.9405 26.4919 24.6584 25.774 24.6584 24.9456L24.5701 14.4529Z" stroke="#1F1F1F" stroke-width="1.15974" stroke-miterlimit="22.9256" stroke-linecap="round" stroke-linejoin="round"/>
<path d="M16.2199 13.3263C15.513 13.0944 14.8835 12.8735 14.2428 12.7962C10.8078 12.4096 10.366 15.8777 14.0219 15.8667C17.5784 15.8556 17.2471 19.3238 13.801 18.9372C13.1604 18.8599 12.5309 18.639 11.824 18.407M13.9998 11.0069V12.5421V11.0069ZM13.9998 19.2133V20.7486V19.2133ZM13.9998 8.81995C17.8987 8.81995 21.0466 11.9788 21.0466 15.8667C21.0466 19.7656 17.8877 22.9134 13.9998 22.9134C10.101 22.9134 6.95312 19.7545 6.95312 15.8667C6.95312 11.9788 10.101 8.81995 13.9998 8.81995Z" stroke="#1F1F1F" stroke-width="1.07689" stroke-miterlimit="22.9256" stroke-linecap="round" stroke-linejoin="round"/>
</svg>
