<svg width="28" height="27" viewBox="0 0 28 27" fill="none" xmlns="http://www.w3.org/2000/svg">
<path d="M17.0488 6.22227L20.2254 3.2915L23.402 6.22227M14.0492 26H1.5V6.79268L7.77457 1L14.0492 6.79268V26ZM13.9508 6.79268L20.2254 1L26.5 6.79268V26H13.9508V6.79268V6.79268ZM11.4823 8.87766H8.86624V12.0051H11.4823V8.87766ZM6.69274 8.87766H4.07671V12.0051H6.69274V8.87766ZM11.4823 14.7588H8.86624V17.8863H11.4823V14.7588ZM6.69274 14.7588H4.07671V17.8863H6.69274V14.7588ZM11.4823 20.6499H8.86624V23.7773H11.4823V20.6499ZM6.69274 25.7345V20.6499H4.07671V25.7443L6.69274 25.7345ZM23.9331 8.87766H21.3072V12.0051H23.9233V8.87766H23.9331ZM19.1436 8.87766H16.5275V12.0051H19.1436V8.87766ZM23.9331 14.7588H21.3072V17.8863H23.9233V14.7588H23.9331ZM19.1436 14.7588H16.5275V17.8863H19.1436V14.7588ZM23.9331 25.7345V20.6499H21.3072V25.7443L23.9331 25.7345ZM19.1436 20.6499H16.5275V23.7773H19.1436V20.6499ZM4.60777 6.22227L7.78441 3.2915L10.961 6.22227H4.60777Z" stroke="#1F1F1F" stroke-width="1.03266" stroke-miterlimit="22.9256" stroke-linecap="round" stroke-linejoin="round"/>
</svg>
