<svg width="28" height="27" viewBox="0 0 28 27" fill="none" xmlns="http://www.w3.org/2000/svg">
<path d="M24.5701 14.4528L27 12.4978L24.6253 10.3772L24.6584 1.24294H21.0688L21.0025 7.14099L14 1L1 12.4868V12.5L3.39677 14.4639L3.3305 24.9456C3.3305 25.7961 4.04843 26.4919 4.8768 26.4919H23.1121C23.9405 26.4919 24.6584 25.774 24.6584 24.9456L24.5701 14.4528Z" stroke="#1F1F1F" stroke-miterlimit="22.9256" stroke-linecap="round" stroke-linejoin="round"/>
<path d="M11.7801 13.3263C12.487 13.0944 13.1165 12.8735 13.7572 12.7962C17.1922 12.4096 17.6559 16.0109 14 15.9999C12 15.9938 12 18.746 14 18.746M14.0002 8.81995C10.1013 8.81995 6.95342 11.9788 6.95342 15.8667C6.95342 19.7656 10.1123 22.9134 14.0002 22.9134C17.899 22.9134 21.0469 19.7545 21.0469 15.8667C21.0469 11.9788 17.899 8.81995 14.0002 8.81995Z" stroke="#1F1F1F" stroke-miterlimit="22.9256" stroke-linecap="round" stroke-linejoin="round"/>
<path d="M14.5 20.5C14.5 20.7761 14.2761 21 14 21C13.7239 21 13.5 20.7761 13.5 20.5C13.5 20.2239 13.7239 20 14 20C14.2761 20 14.5 20.2239 14.5 20.5Z" fill="#1F1F1F"/>
</svg>
