<svg width="340" height="305" viewBox="0 0 340 305" fill="none" xmlns="http://www.w3.org/2000/svg">
<path fill-rule="evenodd" clip-rule="evenodd" d="M212.722 287.314C245.63 279.471 277.473 267.896 300.868 246.845C322.629 227.264 331.92 201.322 337.154 175.348C342.044 151.076 338.545 127.28 329.611 104.198C319.958 79.2589 307.536 55.113 283.969 37.9457C256.794 18.1502 224.298 2.30731 187.654 0.789814C147.328 -0.880194 106.269 8.9443 73.2215 29.2182C38.2778 50.6556 0.0994412 80.2082 0.37243 115.684C0.645297 151.144 57.7363 165.114 74.5147 197.278C90.7882 228.475 62.3578 275.131 94.4552 296.041C125.773 316.443 173.496 296.663 212.722 287.314Z" fill="#FFECBC"/>
</svg>
