<svg width="30" height="30" viewBox="0 0 30 30" fill="none" xmlns="http://www.w3.org/2000/svg">
<path fill-rule="evenodd" clip-rule="evenodd" d="M0 15C0 6.71573 6.71573 0 15 0C23.2843 0 30 6.71573 30 15C30 23.2843 23.2843 30 15 30C6.71573 30 0 23.2843 0 15Z" fill="#D9B351"/>
<path fill-rule="evenodd" clip-rule="evenodd" d="M15 7C12.8273 7 12.5549 7.0092 11.7016 7.04813C10.8501 7.08697 10.2686 7.22223 9.7597 7.42C9.23363 7.62443 8.7875 7.89797 8.3427 8.3427C7.89797 8.7875 7.62443 9.23363 7.42 9.7597C7.22223 10.2686 7.08697 10.8501 7.04813 11.7016C7.0092 12.5549 7 12.8273 7 15C7 17.1727 7.0092 17.4451 7.04813 18.2984C7.08697 19.1499 7.22223 19.7314 7.42 20.2403C7.62443 20.7664 7.89797 21.2125 8.3427 21.6573C8.7875 22.102 9.23363 22.3756 9.7597 22.58C10.2686 22.7778 10.8501 22.913 11.7016 22.9519C12.5549 22.9908 12.8273 23 15 23C17.1727 23 17.4451 22.9908 18.2984 22.9519C19.1499 22.913 19.7314 22.7778 20.2403 22.58C20.7664 22.3756 21.2125 22.102 21.6573 21.6573C22.102 21.2125 22.3756 20.7664 22.58 20.2403C22.7778 19.7314 22.913 19.1499 22.9519 18.2984C22.9908 17.4451 23 17.1727 23 15C23 12.8273 22.9908 12.5549 22.9519 11.7016C22.913 10.8501 22.7778 10.2686 22.58 9.7597C22.3756 9.23363 22.102 8.7875 21.6573 8.3427C21.2125 7.89797 20.7664 7.62443 20.2403 7.42C19.7314 7.22223 19.1499 7.08697 18.2984 7.04813C17.4451 7.0092 17.1727 7 15 7ZM15 8.44143C17.1361 8.44143 17.3891 8.4496 18.2327 8.4881C19.0127 8.52367 19.4363 8.65397 19.7182 8.76353C20.0916 8.90867 20.3581 9.08203 20.638 9.362C20.918 9.6419 21.0913 9.9084 21.2365 10.2818C21.346 10.5637 21.4763 10.9873 21.5119 11.7673C21.5504 12.6109 21.5586 12.8639 21.5586 15C21.5586 17.1361 21.5504 17.3891 21.5119 18.2327C21.4763 19.0127 21.346 19.4363 21.2365 19.7182C21.0913 20.0916 20.918 20.3581 20.638 20.638C20.3581 20.918 20.0916 21.0913 19.7182 21.2365C19.4363 21.346 19.0127 21.4763 18.2327 21.5119C17.3892 21.5504 17.1363 21.5586 15 21.5586C12.8637 21.5586 12.6108 21.5504 11.7673 21.5119C10.9873 21.4763 10.5637 21.346 10.2818 21.2365C9.9084 21.0913 9.64193 20.918 9.36197 20.638C9.08207 20.3581 8.90867 20.0916 8.76353 19.7182C8.65397 19.4363 8.52367 19.0127 8.4881 18.2327C8.4496 17.3891 8.44143 17.1361 8.44143 15C8.44143 12.8639 8.4496 12.6109 8.4881 11.7673C8.52367 10.9873 8.65397 10.5637 8.76353 10.2818C8.90867 9.9084 9.08203 9.6419 9.36197 9.362C9.64193 9.08203 9.9084 8.90867 10.2818 8.76353C10.5637 8.65397 10.9873 8.52367 11.7673 8.4881C12.6109 8.4496 12.8639 8.44143 15 8.44143ZM10.8919 15C10.8919 12.7311 12.7311 10.8919 15 10.8919C17.2689 10.8919 19.1081 12.7311 19.1081 15C19.1081 17.2689 17.2689 19.1081 15 19.1081C12.7311 19.1081 10.8919 17.2689 10.8919 15ZM15 17.6667C13.5272 17.6667 12.3333 16.4728 12.3333 15C12.3333 13.5272 13.5272 12.3333 15 12.3333C16.4728 12.3333 17.6667 13.5272 17.6667 15C17.6667 16.4728 16.4728 17.6667 15 17.6667ZM19.2704 11.6896C19.8006 11.6896 20.2304 11.2598 20.2304 10.7296C20.2304 10.1994 19.8006 9.76957 19.2704 9.76957C18.7402 9.76957 18.3104 10.1994 18.3104 10.7296C18.3104 11.2598 18.7402 11.6896 19.2704 11.6896Z" fill="white"/>
</svg>
