<svg width="30" height="30" viewBox="0 0 30 30" fill="none" xmlns="http://www.w3.org/2000/svg">
<path fill-rule="evenodd" clip-rule="evenodd" d="M0 15C0 6.71573 6.71573 0 15 0C23.2843 0 30 6.71573 30 15C30 23.2843 23.2843 30 15 30C6.71573 30 0 23.2843 0 15Z" fill="#D9B351"/>
<path fill-rule="evenodd" clip-rule="evenodd" d="M21.1008 12.2891C21.1058 12.4161 21.1098 12.5431 21.1098 12.6721C21.1098 16.5761 18.1368 21.0781 12.7028 21.0781C11.0348 21.0781 9.48083 20.5881 8.17383 19.7501C8.40683 19.7771 8.64183 19.7911 8.87983 19.7911C10.2638 19.7911 11.5378 19.3181 12.5488 18.5251C11.2558 18.5021 10.1658 17.6481 9.78783 16.4751C9.96883 16.5101 10.1548 16.5271 10.3448 16.5271C10.6138 16.5271 10.8748 16.4921 11.1228 16.4241C9.77183 16.1521 8.75183 14.9591 8.75183 13.5271V13.4901C9.15083 13.7111 9.60783 13.8441 10.0918 13.8591C9.29883 13.3301 8.77783 12.4261 8.77783 11.4001C8.77783 10.8591 8.92283 10.3521 9.17683 9.91612C10.6328 11.7031 12.8108 12.8791 15.2658 13.0021C15.2158 12.7851 15.1908 12.5601 15.1908 12.3281C15.1908 10.6971 16.5128 9.37512 18.1448 9.37512C18.9938 9.37512 19.7618 9.73212 20.2998 10.3071C20.9738 10.1761 21.6058 9.93012 22.1768 9.59012C21.9558 10.2811 21.4888 10.8591 20.8768 11.2251C21.4748 11.1541 22.0448 10.9961 22.5758 10.7601C22.1778 11.3521 21.6778 11.8731 21.1008 12.2891Z" fill="white"/>
</svg>
