<svg width="30" height="30" viewBox="0 0 30 30" fill="none" xmlns="http://www.w3.org/2000/svg">
<path fill-rule="evenodd" clip-rule="evenodd" d="M0 15C0 6.71573 6.71573 0 15 0C23.2843 0 30 6.71573 30 15C30 23.2843 23.2843 30 15 30C6.71573 30 0 23.2843 0 15Z" fill="#D9B351"/>
<path fill-rule="evenodd" clip-rule="evenodd" d="M13.2214 17.2129L13.2209 12.4192L17.7982 14.8243L13.2214 17.2129ZM23.33 11.5885C23.33 11.5885 23.1637 10.4129 22.6542 9.89519C22.0077 9.2154 21.2831 9.2122 20.9511 9.17275C18.5721 9 15.0037 9 15.0037 9H14.9963C14.9963 9 11.4279 9 9.04894 9.17275C8.71638 9.2122 7.99228 9.2154 7.34522 9.89519C6.83575 10.4129 6.67 11.5885 6.67 11.5885C6.67 11.5885 6.5 12.9694 6.5 14.3498V15.6443C6.5 17.0252 6.67 18.4056 6.67 18.4056C6.67 18.4056 6.83575 19.5812 7.34522 20.0989C7.99228 20.7787 8.84175 20.7574 9.22 20.8283C10.58 20.9595 15 21 15 21C15 21 18.5721 20.9947 20.9511 20.8219C21.2831 20.7819 22.0077 20.7787 22.6542 20.0989C23.1637 19.5812 23.33 18.4056 23.33 18.4056C23.33 18.4056 23.5 17.0252 23.5 15.6443V14.3498C23.5 12.9694 23.33 11.5885 23.33 11.5885Z" fill="white"/>
</svg>
