<svg width="220" height="216" viewBox="0 0 220 216" fill="none" xmlns="http://www.w3.org/2000/svg">
<path fill-rule="evenodd" clip-rule="evenodd" d="M20.656 162.136C9.59605 144.55 0.917777 125.404 0.913877 104.642C0.910255 85.3302 9.83722 67.7008 20.6353 51.7068C30.7258 36.7609 44.4099 25.4854 60.2162 16.8044C77.2939 7.42505 95.2344 -0.403654 114.726 0.0308222C137.201 0.531818 160.102 5.30941 177.623 19.4215C196.906 34.952 210.686 56.9157 215.497 81.1938C220.584 106.865 223.029 138.185 204.888 157.008C186.755 175.822 153.563 160.03 129.559 170.364C106.277 180.387 95.5794 216.865 70.2878 214.954C45.6102 213.09 33.8396 183.1 20.656 162.136Z" fill="#FFFBEF"/>
</svg>
