<svg width="32" height="32" viewBox="0 0 32 32" fill="none" xmlns="http://www.w3.org/2000/svg">
<path d="M29.5445 14.5456C30.0967 14.5456 30.5445 14.9933 30.5445 15.5456C30.5445 16.0979 30.0967 16.5456 29.5445 16.5456L2.54447 16.5456C1.99218 16.5456 1.54446 16.0979 1.54447 15.5456C1.54447 14.9933 1.99218 14.5456 2.54446 14.5456L29.5445 14.5456Z" fill="#1F1F1F"/>
<path d="M14.5445 2.45468C14.5445 1.90239 14.9922 1.45468 15.5445 1.45468C16.0968 1.45468 16.5445 1.90239 16.5445 2.45467L16.5446 29.4547C16.5446 30.007 16.0968 30.4547 15.5446 30.4547C14.9923 30.4547 14.5446 30.007 14.5446 29.4547L14.5445 2.45468Z" fill="#1F1F1F"/>
</svg>
