<svg width="34" height="31" viewBox="0 0 34 31" fill="none" xmlns="http://www.w3.org/2000/svg">
<path fill-rule="evenodd" clip-rule="evenodd" d="M18.2215 0.00239351C21.9347 0.0942994 24.6994 2.88552 27.4114 5.34146C30.2629 7.92378 33.5233 10.4758 33.9363 14.2337C34.3826 18.2935 32.4347 22.2196 29.5988 25.2426C26.6101 28.4284 22.6638 30.7943 18.2215 30.9853C13.5975 31.184 9.13519 29.358 5.78635 26.2662C2.3558 23.0991 -0.51106 18.7863 0.0769405 14.2337C0.629487 9.95561 5.08788 7.58943 8.54923 4.8746C11.4846 2.57227 14.4441 -0.091102 18.2215 0.00239351Z" fill="#CBE7FF"/>
<path fill-rule="evenodd" clip-rule="evenodd" d="M18.2215 0.00239351C21.9347 0.0942994 24.6994 2.88552 27.4114 5.34146C30.2629 7.92378 33.5233 10.4758 33.9363 14.2337C34.3826 18.2935 32.4347 22.2196 29.5988 25.2426C26.6101 28.4284 22.6638 30.7943 18.2215 30.9853C13.5975 31.184 9.13519 29.358 5.78635 26.2662C2.3558 23.0991 -0.51106 18.7863 0.0769405 14.2337C0.629487 9.95561 5.08788 7.58943 8.54923 4.8746C11.4846 2.57227 14.4441 -0.091102 18.2215 0.00239351Z" fill="#FFECBC"/>
<path fill-rule="evenodd" clip-rule="evenodd" d="M18.2215 0.00239351C21.9347 0.0942994 24.6994 2.88552 27.4114 5.34146C30.2629 7.92378 33.5233 10.4758 33.9363 14.2337C34.3826 18.2935 32.4347 22.2196 29.5988 25.2426C26.6101 28.4284 22.6638 30.7943 18.2215 30.9853C13.5975 31.184 9.13519 29.358 5.78635 26.2662C2.3558 23.0991 -0.51106 18.7863 0.0769405 14.2337C0.629487 9.95561 5.08788 7.58943 8.54923 4.8746C11.4846 2.57227 14.4441 -0.091102 18.2215 0.00239351Z" fill="#FFF0C9"/>
</svg>
