<svg width="14" height="11" viewBox="0 0 14 11" fill="none" xmlns="http://www.w3.org/2000/svg">
<path d="M5.07516 7.21327L11.4609 0.456907C11.7398 0.164261 12.1171 0 12.5103 0C12.9035 0 13.2808 0.164261 13.5597 0.456907C13.6992 0.602975 13.81 0.776757 13.8855 0.968228C13.9611 1.1597 14 1.36507 14 1.57249C14 1.77992 13.9611 1.98529 13.8855 2.17676C13.81 2.36823 13.6992 2.54201 13.5597 2.68808L6.11712 10.5443C5.83987 10.8346 5.46566 10.9982 5.07516 11C4.87926 11.0012 4.68507 10.9615 4.50371 10.8833C4.32235 10.8051 4.1574 10.6899 4.01831 10.5443L0.520301 6.83617C0.364481 6.69531 0.237927 6.52198 0.148581 6.32704C0.0592354 6.1321 0.00902736 5.91977 0.00110921 5.70338C-0.00680894 5.48699 0.0277335 5.27121 0.102568 5.06958C0.177402 4.86795 0.290913 4.68482 0.435976 4.5317C0.581039 4.37857 0.754522 4.25875 0.945536 4.17976C1.13655 4.10077 1.34097 4.0643 1.54597 4.07266C1.75096 4.08102 1.95211 4.13402 2.13678 4.22833C2.32146 4.32264 2.48567 4.45623 2.61911 4.62071L5.07516 7.21327Z" fill="#1F1F1F"/>
</svg>
