<svg width="56" height="54" viewBox="0 0 56 54" fill="none" xmlns="http://www.w3.org/2000/svg">
<path fill-rule="evenodd" clip-rule="evenodd" d="M30.0119 0.00416934C36.1278 0.164263 40.6814 5.0264 45.1481 9.30447C49.8447 13.8027 55.2148 18.2482 55.8952 24.7942C56.6301 31.866 53.4219 38.7052 48.751 43.971C43.8285 49.5205 37.3286 53.6417 30.0119 53.9743C22.3959 54.3206 15.0462 51.1397 9.53046 45.7541C3.88014 40.2371 -0.841747 32.7245 0.126726 24.7942C1.0368 17.342 8.38004 13.2203 14.0811 8.49123C18.9159 4.48072 23.7903 -0.158694 30.0119 0.00416934Z" fill="#CBE7FF"/>
<path fill-rule="evenodd" clip-rule="evenodd" d="M30.0119 0.00416934C36.1278 0.164263 40.6814 5.0264 45.1481 9.30447C49.8447 13.8027 55.2148 18.2482 55.8952 24.7942C56.6301 31.866 53.4219 38.7052 48.751 43.971C43.8285 49.5205 37.3286 53.6417 30.0119 53.9743C22.3959 54.3206 15.0462 51.1397 9.53046 45.7541C3.88014 40.2371 -0.841747 32.7245 0.126726 24.7942C1.0368 17.342 8.38004 13.2203 14.0811 8.49123C18.9159 4.48072 23.7903 -0.158694 30.0119 0.00416934Z" fill="#FFECBC"/>
</svg>
