<svg width="31" height="30" viewBox="0 0 31 30" fill="none" xmlns="http://www.w3.org/2000/svg">
<path d="M26.4673 17.3055L28.3237 15.449C31.5326 12.2402 29.9466 7.91253 27.3648 5.134C26.5164 4.21192 25.5452 3.42507 24.537 2.85953C23.2215 2.12187 19.1029 1.03997 16.4104 3.67097L10.8288 9.22804C9.31658 10.728 13.1278 12.1787 15.058 10.2854L16.4596 8.8961C18.5374 7.01505 21.1561 10.7894 24.4141 8.2199M4.71846 16.4326L2.86201 14.5761C-3.33437 8.39202 7.39864 -2.23033 13.6811 3.89228L14.9351 5.134M19.4349 10.2362L26.6271 17.7726C28.0901 19.3094 25.914 22.2478 24.033 20.3053L20.6643 16.826M17.7259 19.1742L21.4389 22.9855C22.9265 24.51 25.9263 22.2601 24.0453 20.3053L20.4184 16.5678M16.5948 23.3789L18.4513 25.2476C19.9512 26.7599 22.865 24.5961 20.9839 22.6412" stroke="#1F1F1F" stroke-width="1.1987" stroke-miterlimit="22.9256" stroke-linecap="round" stroke-linejoin="round"/>
<path d="M9.13202 14.8956L9.32873 15.0923C9.99263 15.7562 9.99263 16.8627 9.32873 17.5266L6.77151 20.0961C6.10761 20.76 5.00111 20.76 4.33721 20.0961L4.1405 19.8994C3.4766 19.2355 3.4766 18.129 4.1405 17.4651L6.69773 14.8956C7.37392 14.2317 8.46813 14.2317 9.13202 14.8956ZM13.4474 16.0636L13.6441 16.2603C14.308 16.9242 14.308 18.0307 13.6441 18.6946L9.56233 22.7763C8.89843 23.4402 7.79193 23.4402 7.12803 22.7763L6.93132 22.5796C6.26743 21.9157 6.26743 20.8092 6.93132 20.1453L11.0131 16.0636C11.677 15.3997 12.7835 15.3997 13.4474 16.0636ZM15.1194 19.8871L15.3161 20.0839C15.98 20.7478 15.98 21.8543 15.3161 22.5182L12.513 25.3213C11.8491 25.9852 10.7426 25.9852 10.0787 25.3213L9.88198 25.1246C9.21808 24.4607 9.21808 23.3542 9.88198 22.6903L12.6851 19.8871C13.349 19.2109 14.4432 19.2109 15.1194 19.8871ZM16.9144 23.5263L17.1111 23.723C17.775 24.3869 17.775 25.4934 17.1111 26.1573L15.3899 27.8785C14.726 28.5424 13.6195 28.5424 12.9556 27.8785L12.7589 27.6818C12.095 27.0179 12.095 25.9114 12.7589 25.2475L14.4801 23.5263C15.144 22.8501 16.2505 22.8501 16.9144 23.5263Z" stroke="#1F1F1F" stroke-width="1.1987" stroke-miterlimit="22.9256"/>
</svg>
